<svg width="141" height="140" viewBox="0 0 141 140" fill="none" xmlns="http://www.w3.org/2000/svg">
<path d="M124.5 0C133.337 0 140.5 7.16344 140.5 16V124C140.5 132.837 133.337 140 124.5 140H16.5C7.66344 140 0.5 132.837 0.5 124V16C0.5 7.16344 7.66344 4.83193e-08 16.5 0H124.5ZM91.5508 26.665C91.1213 26.5078 90.6627 26.4459 90.207 26.4854C89.7513 26.5248 89.3092 26.6638 88.9131 26.8926L34.3398 58.4004L25.7539 48.2793C25.2806 47.7212 24.6262 47.3469 23.9053 47.2217C23.1843 47.0965 22.4423 47.228 21.8086 47.5938L13.4424 52.4238C12.7247 52.8382 12.2008 53.5208 11.9863 54.3213C11.7718 55.1217 11.8846 55.9747 12.2988 56.6924C12.7132 57.4101 13.3958 57.9339 14.1963 58.1484C14.9967 58.3629 15.8497 58.2511 16.5674 57.8369L22.6572 54.3213L58.7041 96.7881C59.7713 98.0483 61.1526 99.0046 62.708 99.5596C62.1191 101.492 62.077 103.55 62.5859 105.505C63.095 107.46 64.1354 109.235 65.5918 110.635C67.0485 112.035 68.8651 113.004 70.8389 113.435C72.8125 113.865 74.8671 113.741 76.7744 113.075C78.6816 112.41 80.3674 111.229 81.6445 109.664C82.9217 108.099 83.7402 106.21 84.0098 104.208C84.2793 102.206 83.9897 100.168 83.1719 98.3203C82.354 96.4732 81.0403 94.8885 79.377 93.7422L94.7422 84.8711C94.8685 86.4881 95.356 88.0564 96.1689 89.46C97.2506 91.3334 98.8636 92.844 100.804 93.8008C102.744 94.7576 104.925 95.1173 107.069 94.835C109.214 94.5525 111.226 93.6409 112.853 92.2148C114.479 90.7885 115.646 88.9118 116.206 86.8223C116.766 84.7327 116.693 82.524 115.998 80.4756C115.303 78.4273 114.016 76.6313 112.3 75.3145C110.584 73.9976 108.515 73.2186 106.356 73.0771C104.198 72.9357 102.046 73.438 100.173 74.5195L67.416 93.4316C66.7822 93.7975 66.0394 93.929 65.3184 93.8037C64.5975 93.6784 63.943 93.3042 63.4697 92.7461L58.9932 87.4688L98.2354 64.8125C100.136 63.7145 101.592 61.9839 102.348 59.9229C103.104 57.8617 103.113 55.6002 102.373 53.5332L93.4277 28.54C93.2717 28.109 93.0225 27.7176 92.6982 27.3936C92.3739 27.0694 91.982 26.8208 91.5508 26.665ZM70.8213 98.6816C71.8979 98.06 73.1781 97.8921 74.3789 98.2139C75.5795 98.5357 76.6031 99.3211 77.2246 100.397C77.6881 101.2 77.9034 102.123 77.8428 103.048C77.7821 103.973 77.4482 104.859 76.8838 105.595C76.3194 106.33 75.5498 106.882 74.6719 107.18C73.794 107.478 72.8476 107.509 71.9521 107.27C71.0566 107.03 70.2519 106.529 69.6406 105.832C69.0295 105.135 68.6386 104.272 68.5176 103.354C68.3966 102.434 68.5509 101.499 68.9609 100.668C69.371 99.8365 70.0184 99.1452 70.8213 98.6816ZM103.298 79.9316C104.374 79.3102 105.654 79.1421 106.854 79.4639C108.055 79.7857 109.08 80.5709 109.701 81.6475C110.165 82.4503 110.379 83.3728 110.318 84.2979C110.258 85.2228 109.925 86.1093 109.36 86.8447C108.796 87.5801 108.026 88.1316 107.148 88.4297C106.271 88.7277 105.323 88.7595 104.428 88.5195C103.532 88.2796 102.728 87.779 102.117 87.082C101.506 86.3851 101.115 85.5226 100.994 84.6035C100.873 83.6843 101.027 82.7495 101.438 81.918C101.848 81.0866 102.495 80.3951 103.298 79.9316ZM96.4893 55.6396C96.7367 56.3305 96.7335 57.0869 96.4795 57.7754C96.2255 58.4637 95.7372 59.0406 95.1006 59.4053L54.8838 82.624L38.4502 63.2451L88.7939 34.1787L96.4893 55.6396Z" fill="white"/>
</svg>
