<svg width="56" height="56" viewBox="0 0 56 56" fill="none" xmlns="http://www.w3.org/2000/svg">
<path d="M49.5996 0C53.1342 0 56 2.86577 56 6.40039V49.5996C56 53.1342 53.1342 56 49.5996 56H6.40039C2.86577 56 0 53.1342 0 49.5996V6.40039C0 2.86577 2.86577 0 6.40039 0H49.5996ZM35.8828 10.5947C35.7005 10.6105 35.5237 10.6653 35.3652 10.7568L13.5361 23.3604L10.1016 19.3115C9.91225 19.0884 9.65063 18.9388 9.3623 18.8887C9.07394 18.8386 8.77694 18.8908 8.52344 19.0371L5.17676 20.9697C4.88984 21.1355 4.68051 21.4084 4.59473 21.7285C4.50894 22.0487 4.55406 22.3897 4.71973 22.6768C4.88549 22.9639 5.15829 23.174 5.47852 23.2598C5.79862 23.3455 6.13972 23.3004 6.42676 23.1348L8.86328 21.7285L23.2812 38.7148C23.7082 39.219 24.2616 39.6012 24.8838 39.8232C24.6482 40.5962 24.6304 41.4201 24.834 42.2021C25.0376 42.9841 25.4545 43.6941 26.0371 44.2539C26.6198 44.8138 27.3463 45.2017 28.1357 45.374C28.9251 45.5462 29.7469 45.4967 30.5098 45.2305C31.2727 44.9642 31.9471 44.4913 32.458 43.8652C32.9687 43.2393 33.2964 42.4842 33.4043 41.6836C33.5121 40.8827 33.3955 40.067 33.0684 39.3281C32.7412 38.5893 32.2161 37.9556 31.5508 37.4971L37.6973 33.9482C37.7478 34.5951 37.9424 35.2228 38.2676 35.7842C38.7002 36.5334 39.3452 37.1378 40.1211 37.5205C40.8972 37.9032 41.77 38.0475 42.6279 37.9346C43.4857 37.8216 44.2909 37.4562 44.9414 36.8857C45.5919 36.3152 46.0583 35.5642 46.2822 34.7285C46.5061 33.8928 46.4773 33.0097 46.1992 32.1904C45.9211 31.3711 45.4062 30.6527 44.7197 30.126C44.0333 29.5992 43.2062 29.2871 42.3428 29.2305C41.4794 29.1739 40.6185 29.375 39.8691 29.8076L26.7666 37.3721C26.5131 37.5184 26.2161 37.5715 25.9277 37.5215C25.6395 37.4714 25.3778 37.3217 25.1885 37.0986L23.3975 34.9873L39.0938 25.9248C39.8542 25.4856 40.4368 24.7932 40.7393 23.9688C41.0416 23.1443 41.0451 22.2398 40.749 21.4131L37.1709 11.416C37.1085 11.2436 37.0086 11.0866 36.8789 10.957C36.7494 10.8277 36.5931 10.7283 36.4209 10.666C36.2491 10.6031 36.0651 10.5789 35.8828 10.5947ZM28.1289 39.4727C28.5595 39.2241 29.0715 39.1565 29.5518 39.2852C30.0319 39.4139 30.4408 39.7287 30.6895 40.1592C30.8748 40.4802 30.9617 40.8489 30.9375 41.2188C30.9132 41.5888 30.7795 41.9441 30.5537 42.2383C30.328 42.5324 30.02 42.7529 29.6689 42.8721C29.3178 42.9913 28.9392 43.0032 28.5811 42.9072C28.2229 42.8112 27.9008 42.6118 27.6562 42.333C27.4117 42.0542 27.2554 41.7085 27.207 41.3408C27.1588 40.9734 27.2209 40.6 27.3848 40.2676C27.5488 39.935 27.8077 39.6581 28.1289 39.4727ZM41.1191 31.9727C41.5498 31.7241 42.0617 31.6565 42.542 31.7852C43.0223 31.9139 43.432 32.2286 43.6807 32.6592C43.8659 32.9801 43.9519 33.3489 43.9277 33.7188C43.9035 34.0888 43.7697 34.4441 43.5439 34.7383C43.3182 35.0324 43.0102 35.2529 42.6592 35.3721C42.308 35.4913 41.9295 35.5032 41.5713 35.4072C41.2131 35.3112 40.891 35.1118 40.6465 34.833C40.402 34.5542 40.2457 34.2085 40.1973 33.8408C40.149 33.4734 40.2111 33.1 40.375 32.7676C40.539 32.435 40.798 32.1581 41.1191 31.9727ZM38.3955 22.2559C38.4945 22.5322 38.4932 22.835 38.3916 23.1104C38.29 23.3856 38.0945 23.6169 37.8398 23.7627L21.7539 33.0498L15.1797 25.2979L35.3174 13.6719L38.3955 22.2559Z" fill="#F62121"/>
</svg>
