<svg width="500" height="342" viewBox="0 0 500 342" fill="none" xmlns="http://www.w3.org/2000/svg">
<g clip-path="url(#clip0_22_1246)">
<rect y="-2.60156" width="500" height="344.714" fill="#F62121"/>
<g clip-path="url(#clip1_22_1246)">
<rect width="19" height="19" transform="translate(274 14.1637) rotate(-12.6587)" fill="#F62121"/>
<path d="M291.002 13.9964L277.098 17.1192C276.791 17.1882 276.523 17.3764 276.355 17.6425C276.186 17.9086 276.131 18.2307 276.2 18.538L276.59 20.276C276.659 20.5833 276.847 20.8506 277.113 21.019C277.379 21.1875 277.701 21.2434 278.009 21.1744L279.44 27.5469C279.509 27.8542 279.697 28.1215 279.963 28.2899C280.23 28.4584 280.552 28.5143 280.859 28.4453L292.445 25.843C292.753 25.7739 293.02 25.5857 293.188 25.3196C293.357 25.0535 293.413 24.7314 293.344 24.4241L291.912 18.0516C292.22 17.9826 292.487 17.7943 292.655 17.5282C292.824 17.2621 292.88 16.94 292.811 16.6327L292.42 14.8948C292.351 14.5875 292.163 14.3202 291.897 14.1517C291.631 13.9832 291.309 13.9274 291.002 13.9964ZM292.185 24.6843L280.599 27.2866L279.167 20.9142L290.754 18.3118L292.185 24.6843ZM291.652 16.893L277.749 20.0158L277.358 18.2778L291.262 15.155L291.652 16.893ZM283.164 22.4507C283.129 22.2971 283.157 22.136 283.241 22.003C283.326 21.8699 283.459 21.7758 283.613 21.7413L287.089 20.9606C287.243 20.9261 287.404 20.954 287.537 21.0383C287.67 21.1225 287.764 21.2562 287.798 21.4098C287.833 21.5634 287.805 21.7245 287.721 21.8575C287.636 21.9906 287.503 22.0847 287.349 22.1192L283.873 22.8999C283.72 22.9344 283.559 22.9065 283.425 22.8223C283.292 22.738 283.198 22.6044 283.164 22.4507Z" fill="#CF1414"/>
</g>
<g clip-path="url(#clip2_22_1246)">
<rect width="21" height="21" transform="translate(22 131.343) rotate(-29.5065)" fill="#F62121"/>
<path d="M39.9311 125.72L26.2239 133.477C25.9209 133.648 25.6985 133.933 25.6055 134.269C25.5125 134.604 25.5566 134.963 25.728 135.266L30.8995 144.404C31.071 144.707 31.3557 144.929 31.6912 145.022C32.0266 145.115 32.3853 145.071 32.6882 144.9L46.3955 137.142C46.6984 136.971 46.9208 136.686 47.0138 136.351C47.1068 136.015 47.0627 135.657 46.8913 135.354L41.7198 126.216C41.5483 125.913 41.2636 125.69 40.9281 125.597C40.5927 125.504 40.234 125.548 39.9311 125.72ZM40.5775 126.862L41.5472 128.575L27.84 136.333L26.8703 134.619L40.5775 126.862ZM45.749 136L32.0418 143.757L28.4864 137.475L42.1936 129.718L45.749 136ZM43.6371 134.933C43.7228 135.085 43.7449 135.264 43.6984 135.432C43.6519 135.599 43.5407 135.742 43.3892 135.827L41.1046 137.12C40.9532 137.206 40.7738 137.228 40.6061 137.182C40.4384 137.135 40.296 137.024 40.2103 136.872C40.1246 136.721 40.1025 136.542 40.149 136.374C40.1955 136.206 40.3067 136.064 40.4582 135.978L42.7427 134.685C42.8942 134.599 43.0735 134.577 43.2413 134.624C43.409 134.67 43.5514 134.782 43.6371 134.933ZM39.068 137.519C39.1537 137.67 39.1758 137.85 39.1293 138.017C39.0828 138.185 38.9716 138.328 38.8201 138.413L37.6778 139.06C37.5264 139.145 37.347 139.167 37.1793 139.121C37.0116 139.074 36.8692 138.963 36.7835 138.812C36.6978 138.66 36.6757 138.481 36.7222 138.313C36.7687 138.145 36.8799 138.003 37.0314 137.917L38.1737 137.271C38.3251 137.185 38.5045 137.163 38.6722 137.21C38.8399 137.256 38.9823 137.367 39.068 137.519Z" fill="#CF1414"/>
</g>
<g clip-path="url(#clip3_22_1246)">
<rect width="26" height="26" transform="translate(459.089 153.789) rotate(-14.9324)" fill="#F62121"/>
<path d="M486.525 160.767L474.181 153.621C473.996 153.513 473.792 153.443 473.581 153.415C473.369 153.387 473.154 153.401 472.948 153.457L463.852 155.882C463.644 155.938 463.466 156.074 463.358 156.26C463.25 156.447 463.221 156.668 463.276 156.877L465.702 165.973C465.756 166.179 465.851 166.373 465.981 166.542C466.111 166.712 466.273 166.854 466.458 166.96L478.803 174.106C478.988 174.213 479.191 174.283 479.403 174.311C479.615 174.339 479.83 174.325 480.036 174.27C480.242 174.215 480.435 174.12 480.605 173.99C480.774 173.861 480.917 173.699 481.024 173.514L487.117 162.988C487.224 162.803 487.294 162.599 487.322 162.388C487.35 162.176 487.336 161.961 487.281 161.755C487.226 161.549 487.131 161.355 487.001 161.186C486.872 161.017 486.71 160.874 486.525 160.767ZM479.617 172.7L467.272 165.554L465.056 157.243L473.367 155.027L485.711 162.173L479.617 172.7ZM470.708 159.52C470.77 159.753 470.762 159.999 470.684 160.227C470.607 160.455 470.463 160.655 470.271 160.801C470.08 160.948 469.849 161.034 469.609 161.05C469.368 161.065 469.129 161.009 468.92 160.888C468.711 160.768 468.543 160.588 468.437 160.371C468.331 160.155 468.291 159.912 468.323 159.673C468.354 159.434 468.456 159.21 468.615 159.029C468.774 158.848 468.984 158.718 469.217 158.656C469.529 158.573 469.862 158.617 470.141 158.779C470.421 158.941 470.625 159.207 470.708 159.52Z" fill="#CF1414"/>
</g>
<g clip-path="url(#clip4_22_1246)">
<rect width="103.408" height="103.408" transform="translate(31.7214 60.4693) rotate(-30)" fill="#F62121"/>
<path d="M111.728 115.026C112.367 116.133 112.663 117.404 112.58 118.68C112.496 119.956 112.036 121.178 111.258 122.192C110.48 123.206 109.418 123.966 108.208 124.377C106.998 124.788 105.692 124.831 104.458 124.5C103.223 124.169 102.114 123.48 101.271 122.519C100.429 121.558 99.8896 120.368 99.7228 119.101C99.5559 117.834 99.7686 116.545 100.334 115.399C100.899 114.252 101.792 113.299 102.899 112.66C104.383 111.803 106.148 111.571 107.803 112.015C109.459 112.458 110.871 113.541 111.728 115.026ZM139.28 91.6555C138.173 92.2946 137.281 93.2477 136.715 94.3941C136.15 95.5405 135.937 96.8289 136.104 98.0962C136.271 99.3635 136.81 100.553 137.653 101.514C138.495 102.475 139.604 103.165 140.839 103.495C142.074 103.826 143.379 103.783 144.589 103.373C145.8 102.962 146.861 102.201 147.639 101.187C148.417 100.173 148.877 98.9508 148.961 97.6753C149.044 96.3998 148.748 95.1281 148.109 94.0211C147.252 92.5367 145.84 91.4535 144.184 91.0098C142.529 90.5662 140.765 90.7984 139.28 91.6555ZM130.55 37.9913L140.219 75.4511C140.744 77.4992 140.586 79.6627 139.771 81.6133C138.955 83.564 137.526 85.1955 135.699 86.2603L101.123 106.223C99.2858 107.282 97.1528 107.712 95.049 107.446C92.9451 107.18 90.986 106.234 89.4703 104.751L51.6658 67.6115L45.397 71.2308C44.6548 71.6593 43.7727 71.7754 42.9449 71.5536C42.117 71.3318 41.4112 70.7902 40.9827 70.048C40.5542 69.3058 40.438 68.4237 40.6599 67.5959C40.8817 66.768 41.4233 66.0622 42.1655 65.6337L50.5612 60.7864C51.1729 60.4331 51.8837 60.2899 52.5845 60.3789C53.2854 60.4679 53.9378 60.7841 54.4418 61.2792L64.6533 71.3074L125.805 36.0013C126.237 35.7521 126.72 35.606 127.217 35.5745C127.714 35.543 128.212 35.6268 128.671 35.8195C129.131 36.0121 129.539 36.3084 129.865 36.6852C130.191 37.0619 130.426 37.5089 130.55 37.9913ZM125.353 43.7251L69.4415 76.0057L94.0106 100.133C94.5146 100.628 95.167 100.944 95.8679 101.033C96.5687 101.122 97.2795 100.979 97.8912 100.626L132.467 80.6632C133.079 80.3101 133.559 79.7662 133.832 79.1147C134.105 78.4632 134.158 77.7401 133.981 77.0561L125.353 43.7251Z" fill="#CF1414"/>
</g>
<g clip-path="url(#clip5_22_1246)">
<rect width="42.1663" height="42.1663" transform="translate(177.315 25.423) rotate(-18.5066)" fill="#F62121"/>
<path d="M205.658 31.2213C206.646 30.8904 207.514 30.2738 208.153 29.4495C208.791 28.6251 209.17 27.6301 209.243 26.5901C209.315 25.5502 209.078 24.5121 208.56 23.6071C208.043 22.7021 207.269 21.9708 206.336 21.5058C205.403 21.0408 204.353 20.8628 203.319 20.9945C202.285 21.1262 201.313 21.5616 200.526 22.2456C199.739 22.9296 199.173 23.8315 198.899 24.8373C198.625 25.8431 198.655 26.9075 198.986 27.8961C199.43 29.2217 200.382 30.3168 201.633 30.9404C202.884 31.564 204.332 31.665 205.658 31.2213ZM203.148 23.724C203.642 23.5585 204.175 23.5434 204.677 23.6804C205.18 23.8174 205.631 24.1005 205.973 24.4939C206.315 24.8872 206.533 25.3731 206.599 25.8902C206.665 26.4073 206.576 26.9322 206.343 27.3987C206.111 27.8652 205.745 28.2523 205.293 28.511C204.84 28.7697 204.321 28.8884 203.801 28.8521C203.281 28.8158 202.784 28.6261 202.371 28.307C201.959 27.988 201.651 27.5539 201.485 27.0596C201.264 26.3968 201.314 25.673 201.626 25.0474C201.938 24.4219 202.485 23.9458 203.148 23.724ZM218.925 35.9305C218.845 36.0062 217.927 36.8344 216.024 37.4712C213.861 38.1953 210.425 38.6715 205.499 37.5203C205.468 39.4925 205.228 41.4558 204.783 43.3773C206.722 43.3301 208.655 43.6115 210.5 44.2098C214.239 45.4839 216.896 48.1901 218.184 52.0403C218.295 52.3717 218.27 52.7336 218.114 53.0463C217.958 53.3591 217.685 53.5972 217.353 53.7081C217.022 53.819 216.66 53.7938 216.347 53.6379C216.034 53.482 215.796 53.2082 215.685 52.8768C213.505 46.3635 207.302 45.8327 203.995 46.0467C203.946 46.1848 203.894 46.3255 203.841 46.4631C202.018 51.2073 198.821 54.4277 194.544 55.8591C194.058 56.0245 193.564 56.165 193.063 56.2803C192.721 56.3581 192.361 56.2966 192.064 56.1095C191.767 55.9223 191.556 55.6247 191.478 55.2822C191.401 54.9397 191.462 54.5804 191.649 54.2832C191.836 53.986 192.134 53.7753 192.477 53.6975C196.66 52.7454 199.656 49.9935 201.373 45.5088C202.532 42.491 202.896 39.1612 202.86 36.8476C195.597 35.3446 192.722 39.6557 192.69 39.7026C192.599 39.8539 192.479 39.9854 192.336 40.0893C192.194 40.1932 192.032 40.2673 191.86 40.3074C191.688 40.3474 191.51 40.3525 191.336 40.3223C191.162 40.2921 190.996 40.2273 190.847 40.1317C190.699 40.0361 190.571 39.9117 190.472 39.7659C190.372 39.62 190.303 39.4556 190.269 39.2826C190.234 39.1095 190.235 38.9312 190.27 38.7583C190.306 38.5854 190.376 38.4215 190.476 38.2762C190.647 38.0103 194.773 31.8006 204.8 34.6226C213.519 37.0733 217.097 34.0343 217.13 34.0024C217.256 33.8816 217.405 33.7871 217.568 33.7243C217.731 33.6615 217.904 33.6316 218.079 33.6366C218.253 33.6415 218.425 33.681 218.584 33.7529C218.743 33.8248 218.887 33.9275 219.006 34.0552C219.125 34.1829 219.217 34.333 219.278 34.4968C219.338 34.6605 219.366 34.8347 219.358 35.0091C219.351 35.1835 219.309 35.3548 219.235 35.5129C219.161 35.671 219.056 35.8127 218.927 35.93L218.925 35.9305Z" fill="#CF1414"/>
</g>
<g clip-path="url(#clip6_22_1246)">
<rect width="66.2613" height="66.2613" transform="translate(76.3867 141.708) rotate(25.5323)" fill="#F62121"/>
<path d="M94.763 184.907L88.5155 197.987C88.2788 198.482 87.8549 198.863 87.3371 199.046C86.8193 199.229 86.2501 199.199 85.7545 198.963C85.259 198.726 84.8778 198.302 84.6947 197.784C84.5117 197.266 84.5419 196.697 84.7786 196.202L91.0261 183.122C91.2628 182.627 91.6866 182.246 92.2044 182.063C92.7222 181.88 93.2915 181.91 93.787 182.146C94.2826 182.383 94.6638 182.807 94.8468 183.325C95.0298 183.843 94.9997 184.412 94.763 184.907ZM103.456 188.831L95.901 201.285C95.7582 201.517 95.6628 201.776 95.6202 202.045C95.5776 202.315 95.5887 202.59 95.6529 202.856C95.717 203.121 95.833 203.371 95.9941 203.591C96.1552 203.811 96.3582 203.998 96.5915 204.139C96.6529 204.173 96.716 204.203 96.7807 204.229C97.2438 204.45 97.7722 204.491 98.2636 204.344C98.755 204.197 99.1745 203.873 99.4407 203.435L106.996 190.98C107.281 190.511 107.368 189.947 107.238 189.414C107.107 188.881 106.771 188.421 106.301 188.136C105.832 187.85 105.268 187.764 104.735 187.894C104.201 188.024 103.742 188.361 103.456 188.831ZM82.5111 178.826C82.6971 178.309 82.6701 177.739 82.4363 177.243C82.2024 176.746 81.7807 176.362 81.2639 176.176C80.7472 175.99 80.1778 176.017 79.6809 176.251C79.184 176.485 78.8004 176.907 78.6144 177.423L73.6748 191.127C73.5004 191.612 73.5128 192.144 73.7098 192.62C73.9068 193.096 74.2741 193.482 74.74 193.701C74.8014 193.735 74.8645 193.765 74.9292 193.792C75.185 193.884 75.4565 193.924 75.7282 193.912C75.9998 193.899 76.2662 193.833 76.5123 193.717C76.7583 193.601 76.9791 193.438 77.1621 193.237C77.3451 193.036 77.4867 192.8 77.5787 192.544L82.5111 178.826ZM122.488 189.276L106.355 214.001C105.804 214.838 104.969 215.448 104.004 215.719C103.039 215.989 102.009 215.902 101.103 215.473L63.2665 197.4C62.3633 196.965 61.6478 196.218 61.2516 195.297C60.8555 194.376 60.8055 193.343 61.1107 192.389L70.2043 164.302C70.2951 164.021 70.4449 163.763 70.6436 163.544C70.8423 163.326 71.0853 163.153 71.3564 163.036C71.6275 162.92 71.9204 162.862 72.2154 162.868C72.5105 162.874 72.8009 162.943 73.0672 163.07L83.4301 168.02L102.791 159.693C103.061 159.578 103.353 159.522 103.647 159.528C103.941 159.535 104.23 159.603 104.495 159.73C104.76 159.857 104.995 160.038 105.184 160.263C105.374 160.487 105.513 160.749 105.594 161.032L111.284 181.325L121.647 186.275C121.913 186.402 122.149 186.585 122.339 186.811C122.529 187.037 122.669 187.301 122.748 187.585C122.828 187.869 122.846 188.167 122.801 188.458C122.756 188.75 122.65 189.029 122.488 189.276ZM88.3955 170.392L106.319 178.953L102.249 164.431L88.3955 170.392ZM117.727 188.992L73.4169 167.827L65.0515 193.663L102.888 211.736L117.727 188.992Z" fill="#CF1414"/>
</g>
<g clip-path="url(#clip7_22_1246)">
<rect width="80.3129" height="80.3129" transform="translate(233.356 61.0898) rotate(13.3515)" fill="#F62121"/>
<path d="M296.39 88.9478L242.667 76.1973C241.372 75.8898 240.008 76.1096 238.874 76.8081C237.741 77.5066 236.932 78.6267 236.624 79.922L226.192 123.877C225.885 125.172 226.104 126.537 226.803 127.67C227.501 128.803 228.622 129.613 229.917 129.92L283.64 142.671C284.935 142.978 286.299 142.758 287.432 142.06C288.566 141.361 289.375 140.241 289.683 138.946L300.115 94.9908C300.422 93.6955 300.203 92.3312 299.504 91.1979C298.806 90.0646 297.685 89.2552 296.39 88.9478ZM284.799 137.787L231.076 125.036L241.508 81.0811L295.231 93.8317L284.799 137.787ZM280.703 100.702C279.781 104.587 277.353 107.948 273.953 110.043C270.553 112.139 266.46 112.798 262.574 111.876C258.688 110.954 255.328 108.525 253.232 105.126C251.137 101.726 250.477 97.6326 251.4 93.7468C251.553 93.0991 251.958 92.5391 252.525 92.1898C253.091 91.8405 253.774 91.7307 254.421 91.8844C255.069 92.0381 255.629 92.4428 255.978 93.0094C256.327 93.5761 256.437 94.2583 256.284 94.9059C255.669 97.4965 256.108 100.225 257.505 102.492C258.902 104.758 261.142 106.377 263.733 106.992C266.324 107.607 269.052 107.167 271.319 105.77C273.585 104.373 275.204 102.133 275.819 99.5425C275.973 98.8948 276.377 98.3348 276.944 97.9855C277.511 97.6362 278.193 97.5264 278.841 97.6801C279.488 97.8338 280.048 98.2385 280.398 98.8051C280.747 99.3718 280.857 100.054 280.703 100.702Z" fill="#CF1414"/>
</g>
<g clip-path="url(#clip8_22_1246)">
<rect width="34.1346" height="34.1346" transform="translate(310.91 264.89) rotate(-28.7597)" fill="#F62121"/>
<path d="M333.057 269.77C331.947 270.379 331.043 271.303 330.459 272.426C329.874 273.549 329.636 274.82 329.774 276.078C329.912 277.336 330.42 278.526 331.234 279.495C332.048 280.465 333.131 281.171 334.346 281.525C335.562 281.879 336.855 281.865 338.062 281.484C339.269 281.103 340.336 280.373 341.128 279.386C341.921 278.398 342.402 277.198 342.512 275.937C342.622 274.676 342.356 273.411 341.747 272.301C340.929 270.814 339.555 269.713 337.925 269.238C336.296 268.764 334.545 268.955 333.057 269.77ZM338.189 279.121C337.449 279.527 336.606 279.704 335.765 279.631C334.924 279.558 334.124 279.236 333.466 278.708C332.808 278.18 332.321 277.469 332.067 276.664C331.813 275.859 331.804 274.997 332.04 274.187C332.276 273.377 332.747 272.655 333.393 272.112C334.039 271.57 334.832 271.231 335.671 271.139C336.51 271.047 337.357 271.206 338.106 271.595C338.854 271.985 339.471 272.588 339.877 273.327C340.421 274.319 340.549 275.487 340.233 276.574C339.916 277.66 339.181 278.576 338.189 279.121ZM343.956 266.626L335.071 258.697C333.932 257.633 332.489 256.953 330.944 256.751C329.398 256.549 327.829 256.836 326.454 257.571C325.08 258.306 323.971 259.453 323.281 260.85C322.591 262.248 322.356 263.826 322.608 265.364L324.515 277.017C324.78 278.886 325.492 280.663 326.59 282.198C327.688 283.734 329.14 284.981 330.823 285.835C332.506 286.689 334.371 287.125 336.258 287.105C338.145 287.085 340 286.61 341.665 285.72C343.329 284.83 344.754 283.552 345.82 281.994C346.885 280.436 347.558 278.644 347.783 276.77C348.008 274.896 347.778 272.995 347.111 271.229C346.445 269.463 345.363 267.884 343.956 266.626ZM340.755 283.796C339.392 284.543 337.868 284.948 336.314 284.977C334.76 285.005 333.222 284.656 331.832 283.959C330.443 283.262 329.243 282.239 328.336 280.976C327.429 279.714 326.842 278.25 326.626 276.711C326.624 276.702 326.623 276.694 326.622 276.685L324.713 265.019C324.532 263.92 324.7 262.792 325.194 261.793C325.687 260.794 326.481 259.975 327.464 259.45C328.447 258.926 329.569 258.722 330.674 258.868C331.778 259.013 332.809 259.501 333.622 260.263L333.641 260.28L342.533 268.219C343.678 269.243 344.56 270.526 345.106 271.961C345.652 273.397 345.846 274.942 345.672 276.467C345.498 277.993 344.961 279.455 344.105 280.73C343.25 282.005 342.101 283.057 340.755 283.796Z" fill="#CF1414"/>
</g>
<rect width="55.2178" height="55.2178" transform="translate(70.879 262.651) rotate(-7.38666)" fill="#F62121"/>
<path d="M110.523 273.172C109.968 273.244 109.418 273.347 108.875 273.479C107.405 271.579 105.602 269.962 103.554 268.707C94.613 263.226 83.7413 266.154 83.2836 266.281C82.9466 266.374 82.6458 266.567 82.4211 266.835C82.1965 267.103 82.0586 267.433 82.0256 267.781C81.9927 268.129 82.0663 268.479 82.2367 268.785C82.4071 269.09 82.6663 269.336 82.9799 269.491C87.0466 271.5 89.2962 275.415 90.5304 279.331C88.0702 279.914 85.7897 281.09 83.8869 282.755C81.9842 284.42 80.5168 286.524 79.6122 288.885C78.7077 291.247 78.3932 293.793 78.6963 296.303C78.9994 298.813 79.9108 301.211 81.3513 303.289C82.7918 305.367 84.7179 307.062 86.9623 308.227C89.2066 309.391 91.7014 309.99 94.2297 309.971C96.7581 309.952 99.2436 309.316 101.47 308.119C103.697 306.921 105.598 305.198 107.007 303.099C109.215 303.934 111.583 304.256 113.933 304.039C116.283 303.822 118.553 303.072 120.57 301.847C122.587 300.621 124.298 298.952 125.573 296.967C126.849 294.981 127.655 292.73 127.93 290.386C128.205 288.043 127.943 285.667 127.162 283.439C126.382 281.212 125.104 279.192 123.426 277.532C121.748 275.873 119.714 274.618 117.478 273.862C115.242 273.107 112.863 272.87 110.523 273.172ZM88.2274 268.965C91.8132 268.657 97.1814 268.844 101.766 271.664C103.134 272.508 104.368 273.55 105.43 274.756C103.092 275.958 101.097 277.732 99.6299 279.913C97.8363 279.229 95.9308 278.886 94.0112 278.901C92.7896 274.729 90.8365 271.374 88.2274 268.965ZM95.6923 306.414C92.623 306.811 89.5187 306.014 87.0198 304.188C84.521 302.362 82.8182 299.647 82.2628 296.603C81.7074 293.558 82.3417 290.417 84.035 287.826C85.7282 285.236 88.3512 283.394 91.3627 282.681C91.7747 284.883 91.9915 287.117 92.0107 289.357C90.3496 289.261 89.4484 288.634 89.4014 288.608C89.2218 288.469 89.0167 288.368 88.7978 288.309C88.579 288.249 88.3506 288.234 88.1257 288.263C87.9009 288.292 87.684 288.365 87.4874 288.478C87.2908 288.591 87.1184 288.742 86.98 288.922C86.8417 289.101 86.74 289.306 86.6809 289.525C86.6218 289.744 86.6064 289.972 86.6355 290.197C86.6647 290.422 86.7378 290.639 86.8508 290.836C86.9638 291.032 87.1143 291.205 87.2939 291.343C87.5423 291.53 89.8962 293.246 93.9004 292.727L93.9539 292.72C97.944 292.192 99.7779 289.946 99.9755 289.692C100.114 289.513 100.216 289.308 100.275 289.089C100.334 288.87 100.349 288.642 100.32 288.417C100.291 288.192 100.218 287.975 100.105 287.778C99.9918 287.582 99.8412 287.409 99.6616 287.271C99.482 287.133 99.2769 287.031 99.058 286.972C98.8391 286.913 98.6107 286.897 98.3859 286.926C98.161 286.956 97.9441 287.029 97.7476 287.142C97.551 287.255 97.3786 287.405 97.2402 287.585C96.7425 288.114 96.1316 288.523 95.4532 288.782C95.4116 286.637 95.2019 284.497 94.826 282.384C97.8229 282.565 100.645 283.856 102.742 286.004C104.839 288.153 106.061 291.006 106.169 294.006C106.277 297.006 105.264 299.94 103.327 302.234C101.39 304.528 98.6684 306.018 95.6923 306.414ZM105.115 283.467C104.385 282.737 103.585 282.082 102.725 281.51C103.948 279.817 105.588 278.468 107.486 277.596C108.546 279.431 109.357 281.4 109.898 283.449C108.551 283.276 107.817 282.769 107.776 282.737C107.564 282.573 107.317 282.461 107.055 282.409C106.792 282.357 106.521 282.366 106.263 282.437C106.005 282.508 105.767 282.638 105.568 282.817C105.368 282.995 105.213 283.218 105.115 283.467ZM114.072 300.552C112.241 300.791 110.38 300.606 108.632 300.011C109.486 297.796 109.82 295.415 109.608 293.051C109.396 290.686 108.643 288.403 107.408 286.376C108.952 286.924 110.604 287.094 112.227 286.871L112.297 286.862C116.312 286.341 118.158 284.084 118.355 283.828C118.494 283.648 118.595 283.443 118.654 283.224C118.713 283.005 118.729 282.777 118.7 282.552C118.671 282.327 118.597 282.11 118.484 281.913C118.371 281.717 118.221 281.544 118.041 281.406C117.862 281.268 117.657 281.166 117.438 281.107C117.219 281.048 116.99 281.032 116.766 281.062C116.541 281.091 116.324 281.164 116.127 281.277C115.931 281.39 115.758 281.54 115.62 281.72C115.584 281.766 114.895 282.573 113.373 283.099C112.819 280.84 111.989 278.659 110.902 276.603L110.966 276.594C114.143 276.182 117.354 277.05 119.891 279.005C122.429 280.96 124.086 283.843 124.498 287.02C124.91 290.197 124.043 293.407 122.088 295.945C120.132 298.483 117.249 300.14 114.072 300.552Z" fill="#CF1414"/>
<g clip-path="url(#clip9_22_1246)">
<rect width="56.2217" height="56.2217" transform="translate(310.854 40.6556) rotate(-24.0937)" fill="#F62121"/>
<path d="M350.615 40.3357C352.191 38.3224 353.188 35.9176 353.5 33.3799C353.812 30.8422 353.426 28.2675 352.385 25.9325C352.194 25.5071 351.843 25.1748 351.408 25.0085C350.973 24.8422 350.489 24.8557 350.064 25.0459L348.46 25.7631C346.167 26.7893 344.192 28.4111 342.738 30.4597C341.285 32.5083 340.408 34.9089 340.197 37.4117C338.191 35.9003 335.816 34.954 333.321 34.6713C330.825 34.3886 328.299 34.7799 326.006 35.8044L324.402 36.5216C323.976 36.7118 323.644 37.0632 323.478 37.4985C323.311 37.9338 323.325 38.4173 323.515 38.8427C323.705 39.2681 324.057 39.6005 324.492 39.7667C324.927 39.933 325.411 39.9196 325.836 39.7293L327.44 39.0121C329.73 37.9921 332.307 37.8196 334.712 38.5257C337.117 39.2318 339.192 40.7702 340.567 42.866C336.507 45.18 333.424 48.8865 331.887 53.2992C330.35 57.712 330.463 62.5321 332.207 66.8674C333.951 71.2026 337.206 74.7594 341.37 76.8792C345.534 78.999 350.326 79.5383 354.857 78.3972C359.388 77.2562 363.353 74.512 366.016 70.6728C368.68 66.8336 369.862 62.1594 369.345 57.5154C368.827 52.8714 366.645 48.5722 363.201 45.4137C359.757 42.2551 355.286 40.4512 350.615 40.3357ZM349.76 29.0309C350.374 31.4184 350.133 33.9453 349.079 36.1739C348.026 38.4025 346.226 40.1924 343.992 41.2335C343.378 38.846 343.619 36.3191 344.672 34.0905C345.726 31.8619 347.525 30.072 349.76 29.0309ZM356.598 74.0881C353.743 75.3648 350.574 75.7662 347.491 75.2416C344.407 74.7171 341.549 73.29 339.277 71.141C337.005 68.9919 335.421 66.2174 334.726 63.1683C334.031 60.1191 334.256 56.9323 335.372 54.0108C336.488 51.0893 338.445 48.5643 340.996 46.7552C343.547 44.9461 346.577 43.934 349.703 43.847C352.829 43.7601 355.911 44.6021 358.559 46.2666C361.206 47.931 363.301 50.3433 364.578 53.1982C366.285 57.0271 366.403 61.3769 364.907 65.2932C363.411 69.2095 360.423 72.3724 356.598 74.0881ZM362.183 56.511C362.811 59.0207 362.652 61.6625 361.729 64.079C360.806 66.4956 359.163 68.5703 357.022 70.0227C356.941 70.0761 356.856 70.123 356.767 70.1631C356.365 70.3423 355.91 70.3639 355.492 70.2234C355.075 70.0829 354.725 69.7908 354.513 69.4048C354.301 69.0187 354.241 68.5671 354.346 68.1393C354.451 67.7115 354.713 67.3387 355.08 67.0949C356.616 66.052 357.796 64.5626 358.458 62.828C359.121 61.0934 359.235 59.1972 358.785 57.3956C358.673 56.9463 358.742 56.4708 358.978 56.0724C359.214 55.6741 359.598 55.3851 360.047 55.2684C360.495 55.1517 360.971 55.2167 361.372 55.4492C361.772 55.6817 362.065 56.063 362.185 56.5101L362.183 56.511Z" fill="#CF1414"/>
</g>
<g clip-path="url(#clip10_22_1246)">
<rect width="50.1981" height="50.1981" transform="translate(169.867 297.442) rotate(-26.9209)" fill="#F62121"/>
<path d="M220.329 289.411L178.368 310.719C177.997 310.907 177.716 311.235 177.587 311.63C177.458 312.026 177.491 312.457 177.68 312.828C180.694 318.763 185.942 323.258 192.27 325.324C198.598 327.389 205.487 326.857 211.423 323.843C217.358 320.829 221.853 315.581 223.919 309.253C225.985 302.925 225.452 296.035 222.438 290.1C222.25 289.729 221.922 289.448 221.526 289.319C221.131 289.19 220.7 289.223 220.329 289.411ZM196.709 316.78L200.375 305.55L205.727 316.091C202.855 317.206 199.717 317.446 196.709 316.78ZM193.727 315.807C190.906 314.569 188.513 312.524 186.852 309.929L197.393 304.577L193.727 315.807ZM203.172 304.13L214.402 307.796C213.164 310.617 211.119 313.009 208.525 314.67L203.172 304.13ZM215.375 304.814L204.145 301.148L214.686 295.796C215.801 298.668 216.041 301.806 215.375 304.814ZM210.002 321.045C205.05 323.553 199.332 324.095 193.997 322.562C188.661 321.029 184.103 317.535 181.236 312.781L184.044 311.355C186.527 315.368 190.426 318.302 194.969 319.576C199.512 320.85 204.368 320.372 208.575 318.235C212.783 316.099 216.034 312.461 217.686 308.041C219.338 303.621 219.269 298.742 217.494 294.37L220.302 292.944C222.449 298.063 222.581 303.805 220.67 309.017C218.76 314.229 214.949 318.526 210.002 321.045Z" fill="#CF1414"/>
</g>
<g clip-path="url(#clip11_22_1246)">
<rect width="73.2891" height="73.2891" transform="translate(405.822 276.239) rotate(-16.2022)" fill="#F62121"/>
<path d="M477.271 284.099C477.212 283.894 477.125 283.698 477.012 283.518L469.057 270.863C468.526 270.025 467.738 269.38 466.81 269.027C465.883 268.673 464.866 268.629 463.911 268.9L423.223 280.723C422.272 281.005 421.436 281.587 420.843 282.383C420.249 283.179 419.929 284.145 419.93 285.138L419.998 300.084C419.998 300.297 420.029 300.509 420.088 300.714L421.366 305.113C421.862 306.82 422.749 308.388 423.956 309.693C425.163 310.998 426.658 312.004 428.321 312.632L434.073 332.426C434.242 333.009 434.636 333.501 435.169 333.794C435.701 334.086 436.328 334.155 436.911 333.986L480.897 321.205C481.481 321.035 481.973 320.641 482.265 320.109C482.558 319.576 482.627 318.95 482.458 318.366L476.706 298.573C477.774 297.151 478.497 295.501 478.817 293.752C479.137 292.004 479.045 290.204 478.549 288.497L477.271 284.099ZM424.501 285.122L465.189 273.299L471.524 283.383L424.565 297.028L424.501 285.122ZM442.721 296.523L455.916 292.688L456.556 294.888C457.064 296.638 456.856 298.518 455.979 300.115C455.101 301.712 453.625 302.894 451.875 303.403C450.125 303.911 448.245 303.704 446.648 302.826C445.051 301.948 443.868 300.472 443.36 298.722L442.721 296.523ZM438.322 297.801L438.961 300C439.29 301.135 439.321 302.335 439.051 303.486C438.781 304.636 438.219 305.697 437.419 306.566C436.619 307.436 435.609 308.085 434.485 308.45C433.361 308.815 432.162 308.884 431.004 308.65C430.817 308.576 430.62 308.526 430.419 308.504C429.314 308.178 428.309 307.58 427.495 306.764C426.682 305.948 426.087 304.941 425.765 303.834L425.126 301.635L438.322 297.801ZM477.42 317.445L437.832 328.948L433.295 313.333C434.061 313.269 434.82 313.128 435.558 312.914C437.265 312.418 438.834 311.531 440.139 310.324C441.444 309.117 442.45 307.622 443.077 305.959C444.499 307.027 446.149 307.75 447.898 308.069C449.646 308.389 451.446 308.298 453.153 307.801C454.86 307.305 456.428 306.419 457.733 305.212C459.038 304.004 460.045 302.51 460.672 300.847C462.093 301.915 463.743 302.637 465.492 302.957C467.241 303.277 469.04 303.185 470.747 302.689C471.486 302.474 472.201 302.186 472.883 301.83L477.42 317.445ZM472.72 296.213C472.565 296.339 472.427 296.484 472.309 296.645C471.457 297.464 470.408 298.048 469.264 298.343C468.119 298.637 466.918 298.632 465.777 298.327C464.635 298.021 463.591 297.427 462.747 296.601C461.902 295.774 461.285 294.744 460.954 293.61L460.315 291.41L473.511 287.576L474.15 289.775C474.471 290.882 474.508 292.052 474.258 293.177C474.008 294.302 473.479 295.346 472.72 296.213Z" fill="#CF1414"/>
</g>
<g clip-path="url(#clip12_22_1246)">
<rect width="39.9174" height="39.9174" transform="translate(421.889 106.151) rotate(-42.5585)" fill="#F62121"/>
<path d="M453.597 87.1969L457.816 91.791C458.039 92.0347 458.157 92.3573 458.143 92.6878C458.129 93.0184 457.984 93.3298 457.741 93.5535C457.497 93.7773 457.174 93.8951 456.844 93.881C456.513 93.8669 456.202 93.7221 455.978 93.4784L452.603 89.8031L448.928 93.1778C448.684 93.4015 448.362 93.5193 448.031 93.5052C447.701 93.4911 447.389 93.3463 447.165 93.1026C446.942 92.8589 446.824 92.5363 446.838 92.2058C446.852 91.8753 446.997 91.5639 447.241 91.3401L451.835 87.1217C452.078 86.8979 452.401 86.7802 452.732 86.7943C453.062 86.8083 453.374 86.9532 453.597 87.1969ZM451.251 121.528L447.575 124.903L444.201 121.228C443.977 120.984 443.665 120.839 443.335 120.825C443.004 120.811 442.682 120.929 442.438 121.153C442.194 121.376 442.05 121.688 442.035 122.018C442.021 122.349 442.139 122.671 442.363 122.915L446.581 127.509C446.805 127.753 447.116 127.898 447.447 127.912C447.778 127.926 448.1 127.808 448.344 127.584L452.938 123.366C453.182 123.142 453.327 122.831 453.341 122.5C453.355 122.17 453.237 121.847 453.013 121.603C452.789 121.36 452.478 121.215 452.147 121.201C451.817 121.187 451.494 121.305 451.251 121.528ZM464.49 100.904C464.246 101.128 464.102 101.439 464.087 101.77C464.073 102.1 464.191 102.423 464.415 102.667L467.79 106.342L464.114 109.717C463.871 109.94 463.726 110.252 463.712 110.582C463.698 110.913 463.815 111.236 464.039 111.479C464.263 111.723 464.574 111.868 464.905 111.882C465.235 111.896 465.558 111.778 465.802 111.554L470.396 107.336C470.639 107.112 470.784 106.801 470.798 106.47C470.812 106.14 470.695 105.817 470.471 105.573L466.253 100.979C466.029 100.736 465.717 100.591 465.387 100.577C465.056 100.563 464.734 100.68 464.49 100.904ZM435.689 113.802C435.932 113.578 436.077 113.267 436.091 112.936C436.105 112.606 435.988 112.283 435.764 112.039L432.389 108.364L436.064 104.989C436.308 104.766 436.453 104.454 436.467 104.124C436.481 103.793 436.363 103.47 436.14 103.227C435.916 102.983 435.604 102.838 435.274 102.824C434.943 102.81 434.621 102.928 434.377 103.152L429.783 107.37C429.539 107.594 429.394 107.905 429.38 108.236C429.366 108.566 429.484 108.889 429.708 109.133L433.926 113.727C434.15 113.97 434.461 114.115 434.792 114.129C435.122 114.143 435.445 114.026 435.689 113.802ZM439.514 106.902C439.271 107.126 439.126 107.437 439.112 107.768C439.098 108.098 439.215 108.421 439.439 108.665L447.876 117.853C448.1 118.097 448.411 118.241 448.742 118.256C449.072 118.27 449.395 118.152 449.638 117.928C449.882 117.704 450.027 117.393 450.041 117.062C450.055 116.732 449.937 116.409 449.714 116.166L441.277 106.977C441.053 106.734 440.742 106.589 440.411 106.575C440.081 106.561 439.758 106.678 439.514 106.902ZM460.74 106.041L452.303 96.8531C452.079 96.6094 451.768 96.4646 451.437 96.4505C451.107 96.4364 450.784 96.5542 450.54 96.778C450.297 97.0017 450.152 97.3131 450.138 97.6436C450.124 97.9742 450.241 98.2968 450.465 98.5405L458.902 107.729C459.126 107.972 459.437 108.117 459.768 108.131C460.098 108.145 460.421 108.028 460.664 107.804C460.908 107.58 461.053 107.269 461.067 106.938C461.081 106.608 460.963 106.285 460.74 106.041ZM446.865 100.153C446.621 100.376 446.476 100.688 446.462 101.018C446.448 101.349 446.566 101.672 446.79 101.915L455.227 111.104C455.45 111.347 455.762 111.492 456.092 111.506C456.423 111.52 456.745 111.402 456.989 111.179C457.233 110.955 457.378 110.643 457.392 110.313C457.406 109.982 457.288 109.66 457.064 109.416L448.627 100.228C448.404 99.9841 448.092 99.8393 447.762 99.8252C447.431 99.8111 447.109 99.9289 446.865 100.153ZM443.19 103.527C442.946 103.751 442.801 104.063 442.787 104.393C442.773 104.724 442.891 105.046 443.114 105.29L451.551 114.478C451.775 114.722 452.086 114.867 452.417 114.881C452.747 114.895 453.07 114.777 453.314 114.553C453.557 114.33 453.702 114.018 453.716 113.688C453.73 113.357 453.613 113.035 453.389 112.791L444.952 103.603C444.728 103.359 444.417 103.214 444.086 103.2C443.756 103.186 443.433 103.304 443.19 103.527Z" fill="#CF1414"/>
</g>
<g clip-path="url(#clip13_22_1246)">
<rect width="45.5412" height="45.5412" transform="translate(236.592 182.974) rotate(20.1761)" fill="#F62121"/>
<path d="M246.515 197.234L248.478 191.89C248.608 191.536 248.874 191.248 249.216 191.09C249.559 190.931 249.95 190.915 250.305 191.045C250.659 191.176 250.947 191.441 251.106 191.784C251.264 192.126 251.28 192.518 251.15 192.872L249.186 198.215C249.056 198.57 248.791 198.858 248.448 199.016C248.105 199.175 247.714 199.191 247.36 199.06C247.005 198.93 246.717 198.665 246.559 198.322C246.4 197.979 246.384 197.588 246.515 197.234ZM252.703 201.024C253.057 201.154 253.449 201.138 253.791 200.98C254.134 200.821 254.399 200.533 254.53 200.179L256.493 194.836C256.623 194.481 256.607 194.09 256.449 193.747C256.29 193.405 256.002 193.139 255.648 193.009C255.294 192.879 254.902 192.895 254.56 193.053C254.217 193.211 253.952 193.5 253.821 193.854L251.858 199.197C251.728 199.551 251.744 199.943 251.902 200.285C252.061 200.628 252.349 200.894 252.703 201.024ZM258.046 202.987C258.401 203.117 258.792 203.102 259.135 202.943C259.477 202.785 259.743 202.497 259.873 202.142L261.836 196.799C261.967 196.445 261.951 196.053 261.792 195.711C261.634 195.368 261.346 195.102 260.991 194.972C260.637 194.842 260.246 194.858 259.903 195.016C259.561 195.175 259.295 195.463 259.165 195.817L257.201 201.161C257.071 201.515 257.087 201.906 257.245 202.249C257.404 202.592 257.692 202.857 258.046 202.987ZM270.64 218.228L270.149 219.564C269.525 221.263 268.276 222.66 266.657 223.471C265.039 224.281 263.172 224.444 261.437 223.927C259.579 226.169 257.181 227.903 254.469 228.964L258.562 230.468C258.916 230.598 259.204 230.864 259.362 231.207C259.521 231.549 259.537 231.941 259.407 232.295C259.276 232.649 259.011 232.937 258.668 233.096C258.326 233.254 257.934 233.27 257.58 233.14L228.192 222.341C227.837 222.211 227.549 221.945 227.391 221.603C227.232 221.26 227.216 220.869 227.347 220.514C227.477 220.16 227.742 219.872 228.085 219.714C228.428 219.555 228.819 219.539 229.173 219.669L233.271 221.175C232.12 219.043 231.434 216.691 231.259 214.275C231.084 211.858 231.424 209.432 232.255 207.156L235.2 199.141C235.331 198.787 235.596 198.499 235.939 198.34C236.281 198.182 236.673 198.166 237.027 198.296L266.415 209.095C268.187 209.746 269.627 211.074 270.419 212.787C271.212 214.5 271.291 216.457 270.64 218.228ZM264.098 211.276L237.381 201.459L234.927 208.138C234.01 210.648 233.817 213.365 234.367 215.979C234.918 218.594 236.192 221.002 238.043 222.929L249.692 227.209C252.35 226.939 254.88 225.929 256.993 224.293C259.105 222.657 260.717 220.461 261.644 217.955L264.098 211.276ZM267.969 217.247C268.273 216.418 268.313 215.516 268.083 214.663C267.853 213.811 267.364 213.051 266.685 212.488L264.315 218.937C264.006 219.775 263.631 220.588 263.194 221.368C264.113 221.427 265.027 221.188 265.799 220.687C266.571 220.185 267.16 219.447 267.478 218.583L267.969 217.247Z" fill="#CF1414"/>
</g>
<g clip-path="url(#clip14_22_1246)">
<rect width="80.3168" height="80.3168" transform="translate(384.675 149.695) rotate(22.6964)" fill="#F62121"/>
<path d="M444.456 201.903C445.741 198.833 445.752 195.378 444.489 192.298C443.226 189.219 440.791 186.767 437.721 185.483L393.726 167.083C391.066 165.973 388.106 165.811 385.342 166.626C382.578 167.441 380.178 169.182 378.546 171.558C376.915 173.933 376.15 176.798 376.381 179.67C376.612 182.543 377.825 185.248 379.816 187.332L369.726 211.457C369.212 212.685 369.207 214.067 369.713 215.299C370.218 216.531 371.192 217.511 372.42 218.025L416.415 236.425C417.643 236.939 419.025 236.944 420.257 236.438C421.489 235.933 422.469 234.959 422.983 233.731L433.073 209.606C435.513 209.566 437.889 208.816 439.911 207.448C441.932 206.081 443.512 204.154 444.456 201.903ZM384.041 190.238C384.655 190.495 385.346 190.498 385.962 190.245C386.578 189.992 387.068 189.505 387.325 188.891C387.582 188.277 387.584 187.586 387.332 186.97C387.079 186.354 386.592 185.864 385.978 185.607C384.136 184.837 382.675 183.366 381.917 181.518C381.159 179.671 381.166 177.598 381.937 175.755C382.707 173.913 384.178 172.452 386.026 171.694C387.873 170.936 389.946 170.943 391.789 171.714L419.575 183.335C421.418 184.106 422.878 185.577 423.636 187.424C424.394 189.272 424.387 191.345 423.616 193.187C422.846 195.03 421.375 196.49 419.528 197.248C417.68 198.006 415.607 197.999 413.765 197.228C413.15 196.972 412.459 196.969 411.844 197.222C411.228 197.475 410.737 197.961 410.481 198.576C410.224 199.19 410.221 199.881 410.474 200.497C410.727 201.112 411.214 201.603 411.828 201.86L402.143 225.015L374.357 213.394L384.041 190.238ZM429.973 204.008C429.359 203.751 428.668 203.748 428.052 204.001C427.436 204.254 426.946 204.741 426.689 205.355C426.433 205.969 426.43 206.66 426.683 207.276C426.935 207.892 427.422 208.382 428.036 208.639L418.352 231.794L406.774 226.952L416.864 202.827C418.757 202.797 420.618 202.34 422.309 201.489C424 200.639 425.477 199.416 426.629 197.914C427.78 196.412 428.577 194.669 428.96 192.815C429.342 190.961 429.3 189.044 428.837 187.209L435.784 190.114C437.626 190.885 439.087 192.356 439.845 194.203C440.603 196.051 440.596 198.124 439.825 199.966C439.055 201.809 437.584 203.269 435.736 204.027C433.889 204.785 431.816 204.778 429.973 204.008Z" fill="#CF1414"/>
</g>
<g clip-path="url(#clip15_22_1246)">
<rect width="36.1426" height="36.1426" transform="translate(133.848 192.717) rotate(-24.2815)" fill="#F62121"/>
<path d="M146.072 203.311L166.645 194.03C166.954 193.892 167.228 193.687 167.447 193.429C167.666 193.172 167.824 192.868 167.91 192.542C167.997 192.215 168.008 191.872 167.945 191.54C167.881 191.208 167.744 190.895 167.543 190.623C164.547 186.535 157.891 185.588 151.714 188.375C145.536 191.161 141.841 196.778 142.924 201.729C142.994 202.06 143.139 202.37 143.345 202.638C143.552 202.905 143.816 203.123 144.119 203.275C144.421 203.427 144.753 203.509 145.091 203.515C145.429 203.521 145.764 203.451 146.072 203.311ZM152.643 190.434C157.767 188.122 163.389 188.778 165.716 191.971L145.143 201.251L145.13 201.247C144.289 197.394 147.518 192.746 152.643 190.434ZM172.204 199.03L167.782 203.348L162.138 203.585C161.848 203.598 161.575 203.721 161.374 203.93L157.472 207.984L151.843 208.23C151.565 208.242 151.303 208.356 151.104 208.549L146.37 213.163C146.178 213.376 146.075 213.654 146.081 213.941C146.087 214.228 146.202 214.502 146.402 214.707C146.602 214.912 146.873 215.034 147.16 215.046C147.447 215.059 147.727 214.962 147.945 214.776L149.37 213.391L149.678 214.074C150.294 215.44 151.427 216.504 152.828 217.034C154.229 217.564 155.783 217.516 157.148 216.9L169.502 211.326C170.868 210.711 171.932 209.577 172.462 208.177C172.992 206.776 172.944 205.222 172.328 203.856L171.766 202.612L173.781 200.648C173.899 200.548 173.994 200.424 174.062 200.285C174.129 200.146 174.168 199.995 174.175 199.841C174.182 199.686 174.157 199.532 174.102 199.388C174.047 199.244 173.962 199.112 173.855 199.002C173.747 198.891 173.617 198.804 173.474 198.745C173.331 198.687 173.178 198.658 173.023 198.661C172.869 198.665 172.717 198.699 172.576 198.764C172.436 198.828 172.31 198.921 172.207 199.035L172.204 199.03ZM170.269 204.785C170.638 205.605 170.667 206.537 170.349 207.377C170.031 208.218 169.393 208.898 168.573 209.267L156.219 214.841C155.4 215.21 154.467 215.239 153.627 214.921C152.786 214.603 152.106 213.965 151.737 213.146L151.091 211.714L152.368 210.469L158.01 210.227C158.299 210.215 158.573 210.091 158.774 209.883L162.676 205.829L168.297 205.586C168.575 205.574 168.838 205.461 169.036 205.267L170.034 204.295L170.269 204.785ZM143.338 208.261C143.215 207.988 143.205 207.677 143.311 207.397C143.417 207.117 143.63 206.89 143.903 206.767L170.671 194.691C170.944 194.568 171.255 194.558 171.535 194.664C171.815 194.77 172.042 194.983 172.165 195.256C172.288 195.529 172.298 195.84 172.192 196.12C172.086 196.401 171.873 196.627 171.6 196.75L144.832 208.826C144.559 208.949 144.248 208.959 143.968 208.853C143.688 208.747 143.461 208.534 143.338 208.261Z" fill="#CF1414"/>
</g>
<g clip-path="url(#clip16_22_1246)">
<rect width="31.1228" height="31.1228" transform="translate(301.922 160.251) rotate(-19.8641)" fill="#F62121"/>
<path d="M327.484 172.152C327.745 172.274 327.963 172.472 328.112 172.719C328.261 172.966 328.333 173.252 328.319 173.54C328.306 173.828 328.207 174.105 328.036 174.337C327.865 174.569 327.629 174.745 327.358 174.843C327.086 174.941 326.792 174.957 326.512 174.888C326.233 174.818 325.979 174.668 325.785 174.455C325.59 174.242 325.463 173.977 325.42 173.692C325.376 173.407 325.418 173.115 325.54 172.854C325.621 172.68 325.736 172.524 325.878 172.394C326.02 172.265 326.186 172.164 326.366 172.099C326.547 172.034 326.738 172.005 326.93 172.014C327.122 172.023 327.31 172.07 327.484 172.152ZM317.892 174.583C317.77 174.844 317.728 175.136 317.772 175.421C317.815 175.706 317.942 175.971 318.137 176.184C318.331 176.397 318.584 176.548 318.864 176.617C319.144 176.686 319.438 176.67 319.709 176.572C319.981 176.474 320.217 176.298 320.388 176.066C320.559 175.834 320.657 175.557 320.671 175.269C320.684 174.981 320.612 174.695 320.464 174.448C320.315 174.201 320.096 174.004 319.836 173.881C319.662 173.799 319.474 173.753 319.283 173.744C319.091 173.735 318.9 173.764 318.72 173.829C318.539 173.894 318.374 173.994 318.232 174.123C318.09 174.253 317.976 174.408 317.894 174.582L317.892 174.583ZM317.31 169.752C317.432 169.491 317.474 169.199 317.43 168.914C317.387 168.629 317.26 168.363 317.065 168.15C316.871 167.938 316.618 167.787 316.338 167.718C316.058 167.649 315.764 167.664 315.492 167.762C315.221 167.86 314.985 168.036 314.814 168.268C314.643 168.501 314.544 168.778 314.531 169.066C314.517 169.354 314.589 169.64 314.738 169.887C314.887 170.134 315.105 170.331 315.366 170.454C315.54 170.536 315.728 170.582 315.92 170.591C316.112 170.6 316.303 170.571 316.484 170.505C316.664 170.44 316.83 170.339 316.972 170.21C317.113 170.08 317.228 169.924 317.309 169.75L317.31 169.752ZM322.757 167.655C322.496 167.533 322.204 167.491 321.919 167.534C321.634 167.578 321.368 167.705 321.156 167.899C320.943 168.094 320.792 168.347 320.723 168.627C320.654 168.907 320.669 169.201 320.767 169.472C320.865 169.743 321.042 169.979 321.274 170.151C321.506 170.322 321.783 170.42 322.071 170.434C322.359 170.447 322.645 170.375 322.892 170.226C323.139 170.078 323.336 169.859 323.459 169.598C323.541 169.425 323.588 169.237 323.597 169.045C323.606 168.853 323.577 168.661 323.512 168.481C323.446 168.3 323.346 168.134 323.217 167.992C323.087 167.851 322.931 167.736 322.757 167.655ZM333.736 165.303C334.586 167.654 334.719 170.205 334.119 172.633C333.519 175.061 332.212 177.256 330.365 178.941C328.517 180.626 326.211 181.725 323.738 182.1C321.266 182.474 318.738 182.107 316.474 181.045C314.21 179.983 312.312 178.273 311.02 176.132C309.728 173.991 309.1 171.515 309.215 169.017C309.33 166.519 310.183 164.111 311.666 162.098C313.15 160.085 315.197 158.557 317.549 157.707C317.791 157.62 318.059 157.632 318.292 157.742C318.526 157.851 318.706 158.049 318.794 158.292C319.232 159.505 320.134 160.494 321.302 161.042C322.469 161.589 323.807 161.651 325.02 161.213C325.262 161.125 325.53 161.137 325.763 161.247C325.997 161.357 326.177 161.554 326.265 161.797C326.703 163.01 327.605 163.999 328.773 164.547C329.941 165.095 331.278 165.157 332.491 164.718C332.733 164.631 333.001 164.643 333.234 164.753C333.468 164.862 333.648 165.06 333.736 165.303ZM332.176 166.821C330.731 167.108 329.232 166.92 327.903 166.284C326.574 165.649 325.486 164.6 324.802 163.295C323.362 163.603 321.86 163.437 320.522 162.821C319.183 162.205 318.08 161.172 317.377 159.878C315.524 160.729 313.953 162.093 312.849 163.807C311.745 165.522 311.155 167.517 311.146 169.556C311.138 171.596 311.713 173.595 312.804 175.318C313.894 177.042 315.454 178.418 317.3 179.284C319.147 180.15 321.202 180.471 323.225 180.208C325.247 179.945 327.152 179.109 328.715 177.799C330.279 176.49 331.435 174.761 332.048 172.816C332.661 170.87 332.706 168.791 332.176 166.821Z" fill="#CF1414"/>
</g>
<g clip-path="url(#clip17_22_1246)">
<rect width="35.1386" height="35.1386" transform="translate(376.183 290.143) rotate(23.3466)" fill="#F62121"/>
<path d="M391.879 298.113C389.472 297.078 386.752 297.039 384.317 298.006C381.882 298.973 379.93 300.866 378.889 303.27L373.667 315.369C373.436 315.903 373.427 316.508 373.642 317.049C373.857 317.591 374.278 318.024 374.813 318.255L378.845 319.996L376.67 325.037C376.323 325.839 376.31 326.746 376.632 327.558C376.955 328.37 377.586 329.021 378.389 329.367C379.191 329.713 380.098 329.726 380.91 329.404C381.722 329.082 382.372 328.45 382.719 327.648L384.894 322.607L388.927 324.348C389.462 324.578 390.066 324.587 390.608 324.372C391.149 324.157 391.583 323.736 391.814 323.201L397.036 311.103C398.071 308.697 398.11 305.977 397.143 303.542C396.176 301.107 394.283 299.154 391.879 298.113ZM380.702 326.777C380.587 327.045 380.37 327.255 380.099 327.363C379.829 327.47 379.526 327.466 379.259 327.35C378.992 327.235 378.781 327.018 378.674 326.747C378.566 326.477 378.571 326.174 378.686 325.907L380.862 320.866L382.878 321.737L380.702 326.777ZM389.797 322.331L375.683 316.239L380.905 304.141C381.713 302.269 383.231 300.795 385.126 300.043C387.021 299.291 389.137 299.322 391.008 300.13C392.88 300.938 394.354 302.456 395.106 304.351C395.859 306.245 395.827 308.361 395.019 310.233L389.797 322.331ZM387.389 305.744L383.038 315.825C382.922 316.093 382.705 316.303 382.435 316.411C382.164 316.518 381.862 316.514 381.594 316.398C381.327 316.283 381.116 316.066 381.009 315.795C380.901 315.525 380.906 315.222 381.021 314.955L385.373 304.873C385.488 304.606 385.705 304.395 385.976 304.288C386.246 304.18 386.549 304.185 386.816 304.3C387.084 304.416 387.294 304.633 387.402 304.903C387.509 305.174 387.505 305.476 387.389 305.744ZM391.422 307.484L387.07 317.566C386.955 317.833 386.738 318.044 386.467 318.151C386.197 318.259 385.894 318.254 385.627 318.139C385.36 318.024 385.149 317.807 385.041 317.536C384.934 317.265 384.938 316.963 385.054 316.696L389.406 306.614C389.521 306.347 389.738 306.136 390.009 306.028C390.279 305.921 390.581 305.925 390.849 306.041C391.116 306.156 391.327 306.373 391.434 306.644C391.542 306.915 391.537 307.217 391.422 307.484Z" fill="#CF1414"/>
</g>
<g clip-path="url(#clip18_22_1246)">
<rect width="39.1544" height="39.1544" transform="translate(6.89954 230.008) rotate(-22.2011)" fill="#F62121"/>
<path d="M51.8517 246.684C48.1733 243.835 43.7587 242.518 39.3628 242.834C40.8152 240.909 41.5956 238.56 41.584 236.149C41.5724 233.737 40.7695 231.396 39.2986 229.485C37.8278 227.574 35.7703 226.198 33.442 225.57C31.1138 224.941 28.6437 225.094 26.4109 226.006C24.1781 226.917 22.3062 228.536 21.0826 230.614C19.859 232.692 19.3513 235.114 19.6376 237.509C19.9239 239.903 20.9883 242.138 22.6674 243.869C24.3464 245.6 26.5473 246.732 28.9319 247.091C25.57 249.94 23.3375 253.97 22.7031 258.58C22.6766 258.741 22.6827 258.906 22.721 259.065C22.7593 259.224 22.8291 259.373 22.9261 259.505C23.0232 259.636 23.1456 259.747 23.2861 259.83C23.4266 259.914 23.5824 259.968 23.7442 259.99C23.9061 260.012 24.0708 260.002 24.2286 259.959C24.3864 259.917 24.534 259.843 24.6629 259.743C24.7917 259.642 24.8992 259.517 24.9788 259.374C25.0585 259.232 25.1088 259.075 25.1267 258.912C25.9129 253.213 29.505 248.535 34.7345 246.401C39.9641 244.267 45.8032 245.095 50.3528 248.617C50.4792 248.721 50.6251 248.798 50.7818 248.844C50.9386 248.89 51.103 248.904 51.2653 248.886C51.4277 248.868 51.5847 248.817 51.7271 248.737C51.8696 248.657 51.9946 248.549 52.0947 248.42C52.1948 248.291 52.268 248.143 52.3101 247.985C52.3521 247.827 52.3621 247.662 52.3395 247.501C52.3168 247.339 52.262 247.183 52.1782 247.043C52.0944 246.903 51.9834 246.781 51.8517 246.684ZM22.6434 239.442C22.0034 237.873 21.8427 236.15 22.1819 234.491C22.521 232.831 23.3447 231.309 24.5488 230.117C25.7529 228.926 27.2832 228.118 28.9464 227.796C30.6095 227.474 32.3308 227.653 33.8924 228.309C35.4541 228.966 36.786 230.071 37.7198 231.484C38.6536 232.897 39.1472 234.556 39.1384 236.25C39.1296 237.944 38.6186 239.597 37.6701 241.001C36.7217 242.404 35.3783 243.495 33.8099 244.135C31.7065 244.991 29.3495 244.978 27.256 244.098C25.1626 243.218 23.5038 241.543 22.6434 239.442Z" fill="#CF1414"/>
</g>
<g clip-path="url(#clip19_22_1246)">
<rect width="23.7888" height="23.7888" transform="translate(291.301 295.092) rotate(25.0593)" fill="#F62121"/>
<path d="M294.956 313C296.139 312.821 297.234 312.266 298.077 311.417C298.921 310.568 299.469 309.47 299.641 308.286C299.812 307.101 299.598 305.893 299.029 304.839C298.461 303.786 297.568 302.943 296.484 302.436C295.4 301.93 294.181 301.785 293.008 302.024C291.836 302.263 290.771 302.874 289.972 303.765C289.173 304.656 288.681 305.78 288.571 306.972C288.46 308.164 288.736 309.36 289.358 310.383C287.444 310.221 285.529 310.683 283.899 311.699C283.814 311.749 283.741 311.816 283.683 311.896C283.624 311.975 283.582 312.065 283.559 312.161C283.536 312.257 283.532 312.356 283.548 312.454C283.563 312.551 283.598 312.644 283.65 312.728C283.702 312.811 283.77 312.884 283.85 312.941C283.931 312.998 284.021 313.039 284.117 313.061C284.214 313.082 284.313 313.085 284.41 313.068C284.507 313.051 284.6 313.015 284.683 312.962C285.734 312.307 286.932 311.925 288.168 311.852C289.404 311.778 290.639 312.013 291.761 312.538C292.883 313.062 293.856 313.859 294.591 314.855C295.327 315.851 295.803 317.015 295.974 318.241C296.005 318.434 296.109 318.608 296.266 318.724C296.423 318.84 296.62 318.89 296.813 318.863C297.006 318.835 297.181 318.733 297.3 318.578C297.418 318.422 297.471 318.227 297.446 318.033C297.181 316.131 296.307 314.365 294.956 313ZM290.418 305.757C290.76 305.025 291.312 304.41 292.004 303.992C292.696 303.573 293.496 303.368 294.304 303.405C295.112 303.441 295.891 303.716 296.543 304.194C297.194 304.673 297.689 305.335 297.965 306.095C298.241 306.855 298.285 307.68 298.092 308.465C297.899 309.25 297.478 309.961 296.881 310.507C296.284 311.052 295.539 311.409 294.739 311.531C293.94 311.653 293.122 311.536 292.39 311.193C291.408 310.733 290.65 309.902 290.28 308.883C289.91 307.864 289.96 306.74 290.418 305.757ZM304.222 322.337C304.027 322.364 303.829 322.313 303.671 322.195C303.514 322.076 303.41 321.9 303.382 321.705C303.211 320.478 302.736 319.314 302 318.318C301.264 317.322 300.29 316.526 299.168 316.003C298.989 315.92 298.851 315.769 298.784 315.584C298.717 315.398 298.726 315.194 298.809 315.015C298.893 314.837 299.044 314.698 299.229 314.631C299.414 314.564 299.619 314.573 299.797 314.657C300.343 314.911 300.938 315.042 301.54 315.04C302.143 315.038 302.737 314.903 303.281 314.644C303.824 314.386 304.305 314.01 304.686 313.545C305.068 313.079 305.343 312.535 305.49 311.951C305.638 311.368 305.654 310.758 305.539 310.168C305.423 309.577 305.179 309.018 304.823 308.533C304.466 308.047 304.008 307.646 303.479 307.359C302.949 307.071 302.363 306.904 301.762 306.869C301.663 306.866 301.565 306.844 301.475 306.802C301.385 306.761 301.304 306.702 301.236 306.629C301.169 306.556 301.117 306.47 301.084 306.376C301.051 306.282 301.036 306.183 301.042 306.084C301.048 305.985 301.073 305.888 301.117 305.799C301.161 305.709 301.222 305.63 301.297 305.565C301.372 305.5 301.459 305.45 301.554 305.419C301.648 305.389 301.748 305.377 301.847 305.385C303.223 305.465 304.52 306.052 305.489 307.031C306.458 308.011 307.03 309.315 307.094 310.692C307.158 312.069 306.71 313.42 305.837 314.486C304.963 315.552 303.726 316.256 302.363 316.464C303.715 317.829 304.588 319.594 304.854 321.497C304.882 321.692 304.831 321.89 304.712 322.047C304.594 322.205 304.417 322.309 304.222 322.337Z" fill="#CF1414"/>
</g>
<g clip-path="url(#clip20_22_1246)">
<rect width="45.1782" height="45.1782" transform="translate(366.578 92.2658) rotate(28.7041)" fill="#F62121"/>
<path d="M395.594 121.464L386.054 106.552C385.8 106.152 385.449 105.822 385.033 105.595C384.617 105.367 384.151 105.248 383.676 105.25L365.972 105.248C365.466 105.248 364.97 105.383 364.535 105.64C364.1 105.897 363.741 106.267 363.498 106.71L355.391 121.514C355.149 121.958 355.031 122.458 355.049 122.964C355.067 123.469 355.22 123.96 355.492 124.386L365.031 139.301C365.285 139.701 365.636 140.031 366.052 140.259C366.468 140.486 366.935 140.605 367.409 140.603L385.113 140.606C385.619 140.606 386.115 140.47 386.55 140.213C386.985 139.956 387.344 139.587 387.588 139.144L395.693 124.341C395.936 123.897 396.055 123.395 396.038 122.889C396.021 122.383 395.867 121.891 395.594 121.464ZM383.679 108.068L392.385 121.689L386.395 121.688L377.687 108.067L383.679 108.068ZM376.22 121.69L367.513 108.07L374.334 108.07L383.04 121.69L376.22 121.69ZM365.141 109.587L373.813 123.145L366.542 136.424L357.867 122.871L365.141 109.587ZM385.113 137.783L369.019 137.78L376.287 124.507L382.724 124.509L379.699 130.034C379.519 130.362 379.477 130.748 379.582 131.108C379.687 131.467 379.931 131.77 380.259 131.95C380.588 132.13 380.974 132.172 381.334 132.067C381.693 131.962 381.996 131.718 382.176 131.39L385.943 124.509L392.384 124.505L385.114 137.781L385.113 137.783Z" fill="#CF1414"/>
</g>
<g clip-path="url(#clip21_22_1246)">
<rect width="42.1663" height="42.1663" transform="translate(430.89 17.8661) rotate(-24.2723)" fill="#F62121"/>
<path d="M477.164 18.1397L472.692 13.8323C472.313 13.4681 471.834 13.226 471.316 13.1374C470.798 13.0489 470.265 13.1179 469.787 13.3356L464.594 15.677L464.053 14.4757C463.909 14.1572 463.645 13.9087 463.318 13.785C462.991 13.6613 462.629 13.6725 462.31 13.8162L439.487 24.1079C438.85 24.3953 438.353 24.9239 438.105 25.5776C437.858 26.2313 437.88 26.9566 438.168 27.5937L445.751 44.4107C446.038 45.0479 446.567 45.5448 447.221 45.7922C447.875 46.0396 448.6 46.0171 449.237 45.7298L451.789 44.5788C452.52 45.493 453.534 46.138 454.672 46.4122C455.81 46.6863 457.007 46.574 458.073 46.0929C459.14 45.6118 460.017 44.7893 460.565 43.7551C461.112 42.7208 461.3 41.5337 461.099 40.3808L468.607 36.9954C469.337 37.9096 470.351 38.5546 471.489 38.8288C472.627 39.1029 473.824 38.9906 474.89 38.5095C475.957 38.0284 476.834 37.2059 477.382 36.1717C477.929 35.1374 478.117 33.9503 477.916 32.7974L480.469 31.6464C481.106 31.3591 481.603 30.8304 481.85 30.1767C482.097 29.523 482.075 28.7978 481.788 28.1606L477.454 18.5509C477.385 18.3963 477.286 18.2567 477.164 18.1397ZM465.678 18.0794L470.87 15.738L473.937 18.6917L467.303 21.683L465.678 18.0794ZM440.57 26.5104L462.192 16.7603L466.525 26.37L444.904 36.1201L440.57 26.5104ZM456.986 43.681C456.511 43.8953 455.983 43.9638 455.469 43.878C454.954 43.7922 454.477 43.5558 454.098 43.1988C453.718 42.8418 453.452 42.3802 453.335 41.8724C453.217 41.3646 453.253 40.8333 453.438 40.3458C453.622 39.8584 453.947 39.4365 454.371 39.1337C454.796 38.8308 455.3 38.6606 455.821 38.6445C456.342 38.6283 456.856 38.7671 457.298 39.0431C457.74 39.3191 458.091 39.7201 458.305 40.1952C458.592 40.8324 458.615 41.5576 458.367 42.2113C458.12 42.865 457.623 43.3937 456.986 43.681ZM467.523 34.593L460.016 37.9784C459.285 37.0642 458.271 36.4192 457.133 36.145C455.995 35.8709 454.798 35.9832 453.732 36.4643C452.665 36.9454 451.788 37.7679 451.241 38.8021C450.693 39.8363 450.505 41.0235 450.706 42.1763L448.154 43.3274L445.987 38.5225L467.609 28.7725L468.442 30.6208C468.034 31.1892 467.742 31.8329 467.585 32.5148C467.427 33.1966 467.406 33.903 467.523 34.593ZM473.803 36.0976C473.328 36.3119 472.8 36.3804 472.286 36.2946C471.771 36.2088 471.294 35.9724 470.915 35.6154C470.535 35.2585 470.269 34.7969 470.152 34.289C470.034 33.7812 470.07 33.25 470.255 32.7625C470.439 32.275 470.764 31.8531 471.188 31.5503C471.613 31.2474 472.117 31.0772 472.638 31.0611C473.159 31.0449 473.673 31.1837 474.115 31.4597C474.557 31.7357 474.908 32.1367 475.122 32.6119C475.409 33.249 475.432 33.9742 475.184 34.6279C474.937 35.2816 474.44 35.8103 473.803 36.0976ZM479.385 29.244L476.833 30.395C476.1 29.4847 475.086 28.8432 473.95 28.5709C472.813 28.2987 471.619 28.411 470.553 28.8903L468.386 24.0855L475.593 20.8354L479.385 29.244Z" fill="#CF1414"/>
</g>
<g clip-path="url(#clip22_22_1246)">
<rect width="27.1072" height="27.1072" transform="translate(36.6152 -4.61743) rotate(27.9072)" fill="#F62121"/>
<path d="M54.8447 9.83036L38.3758 1.10786C37.9787 0.89756 37.5143 0.853607 37.0849 0.985674C36.6554 1.11774 36.296 1.41501 36.0856 1.81208L28.9491 15.2866C28.7388 15.6837 28.6948 16.1481 28.8269 16.5776C28.9589 17.007 29.2562 17.3665 29.6533 17.5768L46.1222 26.2993C46.5193 26.5096 46.9836 26.5535 47.4131 26.4215C47.8426 26.2894 48.202 25.9921 48.4123 25.595L55.5489 12.1205C55.7592 11.7234 55.8032 11.2591 55.6711 10.8296C55.539 10.4001 55.2418 10.0407 54.8447 9.83036ZM54.0517 11.3275L53.2588 12.8247L36.7899 4.10221L37.5828 2.60504L54.0517 11.3275ZM46.9151 24.8021L30.4462 16.0796L35.9969 5.59939L52.4658 14.3219L46.9151 24.8021ZM47.5335 14.5853C46.9025 15.7765 45.8243 16.6683 44.5358 17.0645C43.2474 17.4607 41.8543 17.3288 40.6631 16.6979C39.4719 16.067 38.58 14.9887 38.1838 13.7003C37.7876 12.4118 37.9195 11.0188 38.5504 9.82753C38.6556 9.62899 38.8353 9.48036 39.05 9.41433C39.2648 9.34829 39.4969 9.37027 39.6955 9.47542C39.894 9.58057 40.0427 9.76029 40.1087 9.97503C40.1747 10.1898 40.1527 10.4219 40.0476 10.6205C39.627 11.4146 39.5391 12.3433 39.8032 13.2023C40.0673 14.0613 40.6619 14.7801 41.456 15.2007C42.2502 15.6213 43.1789 15.7093 44.0379 15.4451C44.8968 15.181 45.6157 14.5865 46.0363 13.7923C46.1414 13.5938 46.3212 13.4451 46.5359 13.3791C46.7506 13.3131 46.9828 13.335 47.1813 13.4402C47.3799 13.5453 47.5285 13.7251 47.5946 13.9398C47.6606 14.1545 47.6386 14.3867 47.5335 14.5853Z" fill="#CF1414"/>
</g>
<g clip-path="url(#clip23_22_1246)">
<rect width="30" height="30" transform="translate(24.2745 285.722) rotate(12.6162)" fill="#F62121"/>
<path d="M47.6472 309.934L47.3785 299.073C47.3682 298.655 47.2183 298.253 46.9527 297.929C46.6871 297.606 46.3211 297.381 45.9128 297.29L38.3938 295.607L38.8033 293.777C38.9119 293.292 38.8233 292.783 38.557 292.364C38.2906 291.944 37.8684 291.647 37.3831 291.538L32.8088 290.514C32.3235 290.406 31.815 290.494 31.395 290.761C30.9751 291.027 30.6781 291.449 30.5695 291.934L30.16 293.764L29.045 293.515C28.6368 293.423 28.2097 293.471 27.8317 293.65C27.4537 293.829 27.1464 294.129 26.9588 294.503L22.0859 304.213C22.0514 304.281 22.0255 304.354 22.0088 304.429L21.1897 308.088C21.0811 308.573 21.1697 309.082 21.4361 309.502C21.7024 309.922 22.1246 310.219 22.6099 310.327L44.5667 315.242C45.0519 315.351 45.5605 315.262 45.9804 314.996C46.4004 314.729 46.6973 314.307 46.8059 313.822L47.625 310.162C47.6418 310.087 47.6492 310.011 47.6472 309.934ZM32.3992 292.344L36.9736 293.368L36.564 295.197L31.9897 294.174L32.3992 292.344ZM28.6355 295.344L45.5033 299.12L45.7427 308.78L24.3006 303.981L28.6355 295.344ZM23.0195 308.498L23.6338 305.753L45.5905 310.668L44.9762 313.412L23.0195 308.498ZM29.1361 298.338C29.1904 298.096 29.3389 297.885 29.5489 297.751C29.7589 297.618 30.0131 297.574 30.2558 297.628L32.0855 298.038C32.3281 298.092 32.5393 298.241 32.6724 298.451C32.8056 298.661 32.8499 298.915 32.7956 299.157C32.7413 299.4 32.5928 299.611 32.3828 299.744C32.1729 299.878 31.9186 299.922 31.676 299.868L29.8462 299.458C29.6036 299.404 29.3925 299.255 29.2593 299.045C29.1261 298.835 29.0818 298.581 29.1361 298.338ZM34.6253 299.567C34.6796 299.324 34.8281 299.113 35.0381 298.98C35.248 298.847 35.5023 298.803 35.745 298.857L37.5747 299.266C37.8173 299.321 38.0284 299.469 38.1616 299.679C38.2948 299.889 38.3391 300.143 38.2848 300.386C38.2305 300.629 38.082 300.84 37.872 300.973C37.6621 301.106 37.4078 301.151 37.1651 301.096L35.3354 300.687C35.0928 300.632 34.8817 300.484 34.7485 300.274C34.6153 300.064 34.571 299.81 34.6253 299.567ZM40.1145 300.796C40.1688 300.553 40.3173 300.342 40.5273 300.209C40.7372 300.076 40.9915 300.031 41.2341 300.086L43.0639 300.495C43.3065 300.549 43.5176 300.698 43.6508 300.908C43.784 301.118 43.8283 301.372 43.774 301.615C43.7197 301.857 43.5712 302.068 43.3612 302.202C43.1512 302.335 42.897 302.379 42.6543 302.325L40.8246 301.915C40.582 301.861 40.3708 301.712 40.2377 301.503C40.1045 301.293 40.0602 301.038 40.1145 300.796ZM28.3171 301.998C28.3714 301.755 28.5198 301.544 28.7298 301.411C28.9398 301.278 29.1941 301.233 29.4367 301.288L31.2664 301.697C31.5091 301.752 31.7202 301.9 31.8534 302.11C31.9865 302.32 32.0308 302.574 31.9765 302.817C31.9222 303.06 31.7737 303.271 31.5638 303.404C31.3538 303.537 31.0995 303.581 30.8569 303.527L29.0272 303.118C28.7845 303.063 28.5734 302.915 28.4402 302.705C28.3071 302.495 28.2628 302.241 28.3171 301.998ZM33.8062 303.226C33.8606 302.984 34.009 302.773 34.219 302.64C34.429 302.506 34.6832 302.462 34.9259 302.516L36.7556 302.926C36.9982 302.98 37.2094 303.129 37.3425 303.339C37.4757 303.549 37.52 303.803 37.4657 304.046C37.4114 304.288 37.2629 304.499 37.053 304.632C36.843 304.766 36.5887 304.81 36.3461 304.756L34.5163 304.346C34.2737 304.292 34.0626 304.143 33.9294 303.933C33.7962 303.723 33.7519 303.469 33.8062 303.226ZM39.2954 304.455C39.3497 304.212 39.4982 304.001 39.7082 303.868C39.9182 303.735 40.1724 303.691 40.4151 303.745L42.2448 304.155C42.4874 304.209 42.6986 304.357 42.8317 304.567C42.9649 304.777 43.0092 305.032 42.9549 305.274C42.9006 305.517 42.7521 305.728 42.5421 305.861C42.3322 305.994 42.0779 306.039 41.8353 305.984L40.0055 305.575C39.7629 305.52 39.5518 305.372 39.4186 305.162C39.2854 304.952 39.2411 304.698 39.2954 304.455Z" fill="#CF1414"/>
</g>
<g clip-path="url(#clip24_22_1246)">
<rect width="32" height="32" transform="translate(178 242.099) rotate(-18.3958)" fill="#F62121"/>
<path d="M209.337 239.581C209.172 239.541 208.999 239.544 208.836 239.589C208.672 239.634 208.523 239.72 208.402 239.839C204.138 244.023 200.113 244.066 195.86 244.113C191.397 244.162 186.772 244.218 181.934 248.96C181.798 249.091 181.702 249.258 181.658 249.441C181.613 249.625 181.621 249.817 181.68 249.996L186.411 264.221C186.465 264.382 186.558 264.527 186.683 264.641C186.808 264.756 186.96 264.837 187.125 264.877C187.29 264.917 187.462 264.915 187.626 264.869C187.789 264.824 187.939 264.738 188.06 264.62C192.324 260.435 196.348 260.393 200.608 260.344C203.133 260.314 205.705 260.285 208.333 259.411C210.36 258.736 212.425 257.56 214.529 255.498C214.663 255.367 214.757 255.201 214.801 255.019C214.845 254.837 214.837 254.647 214.778 254.469L210.047 240.244C209.995 240.082 209.902 239.936 209.778 239.82C209.654 239.704 209.502 239.622 209.337 239.581ZM212.684 254.495C208.586 258.252 204.695 258.297 200.586 258.345C198.061 258.374 195.489 258.404 192.861 259.278C191.017 259.901 189.31 260.871 187.831 262.136L183.784 249.967C187.882 246.21 191.773 246.165 195.882 246.117C199.991 246.069 204.221 246.024 208.638 242.328L212.684 254.495ZM196.969 248.436C196.219 248.686 195.559 249.152 195.073 249.777C194.588 250.402 194.299 251.156 194.242 251.945C194.185 252.734 194.364 253.523 194.755 254.21C195.147 254.898 195.733 255.454 196.44 255.808C197.148 256.162 197.944 256.299 198.729 256.201C199.514 256.102 200.252 255.773 200.85 255.255C201.448 254.737 201.879 254.054 202.089 253.291C202.298 252.528 202.277 251.72 202.027 250.969C201.692 249.963 200.971 249.13 200.023 248.655C199.074 248.18 197.976 248.101 196.969 248.436ZM198.863 254.129C198.487 254.254 198.084 254.265 197.702 254.16C197.321 254.056 196.979 253.84 196.72 253.541C196.461 253.242 196.296 252.873 196.247 252.48C196.198 252.088 196.266 251.69 196.443 251.336C196.621 250.982 196.899 250.689 197.242 250.493C197.586 250.298 197.98 250.208 198.375 250.237C198.769 250.265 199.147 250.41 199.459 250.652C199.771 250.895 200.005 251.225 200.129 251.6C200.297 252.104 200.257 252.653 200.02 253.127C199.782 253.602 199.366 253.962 198.863 254.129ZM188.429 251.276L190.323 256.97C190.406 257.221 190.387 257.496 190.268 257.733C190.149 257.97 189.941 258.15 189.689 258.234C189.438 258.318 189.163 258.298 188.926 258.179C188.689 258.061 188.509 257.852 188.425 257.601L186.531 251.907C186.448 251.656 186.467 251.381 186.586 251.144C186.705 250.907 186.913 250.727 187.165 250.643C187.416 250.559 187.691 250.579 187.928 250.698C188.165 250.816 188.346 251.025 188.429 251.276ZM208.034 253.187L206.141 247.494C206.057 247.242 206.077 246.967 206.195 246.73C206.314 246.493 206.522 246.313 206.774 246.229C207.026 246.145 207.3 246.165 207.537 246.284C207.774 246.403 207.955 246.611 208.038 246.862L209.932 252.556C210.016 252.808 209.996 253.082 209.877 253.319C209.758 253.556 209.55 253.737 209.299 253.82C209.047 253.904 208.772 253.884 208.535 253.766C208.298 253.647 208.118 253.439 208.034 253.187Z" fill="#CF1414"/>
</g>
<g clip-path="url(#clip25_22_1246)">
<rect width="42" height="42" transform="translate(161 118.402) rotate(-27.5126)" fill="#F62121"/>
<path d="M201.657 116.245C200.81 115.958 199.935 115.663 199.45 115.255C199.004 114.882 198.582 114.099 198.173 113.341C197.411 111.933 196.55 110.335 194.848 109.799C193.146 109.263 191.525 110.078 190.093 110.796C189.323 111.182 188.528 111.581 187.949 111.631C187.32 111.687 186.432 111.428 185.573 111.178C184.067 110.736 182.357 110.238 180.838 111.029C179.319 111.82 178.748 113.506 178.245 114.995C177.958 115.842 177.663 116.717 177.255 117.202C176.885 117.646 176.099 118.07 175.341 118.479C173.933 119.241 172.335 120.102 171.799 121.804C171.263 123.506 172.085 125.123 172.796 126.559C173.182 127.329 173.581 128.123 173.631 128.702C173.687 129.332 173.428 130.22 173.178 131.079C172.737 132.587 172.238 134.295 173.029 135.814C173.82 137.333 175.506 137.903 176.995 138.406C177.842 138.694 178.717 138.989 179.202 139.397C179.647 139.77 180.07 140.553 180.479 141.31C181.241 142.719 182.102 144.316 183.804 144.853C185.506 145.389 187.127 144.574 188.559 143.856C189.329 143.47 190.123 143.071 190.702 143.021C191.332 142.965 192.22 143.224 193.079 143.474C194.585 143.915 196.295 144.414 197.814 143.623C199.333 142.832 199.903 141.145 200.406 139.657C200.694 138.81 200.989 137.935 201.397 137.45C201.77 137.005 202.553 136.582 203.31 136.173C204.719 135.411 206.316 134.55 206.853 132.848C207.389 131.146 206.574 129.525 205.856 128.093C205.47 127.323 205.071 126.528 205.021 125.949C204.965 125.32 205.224 124.432 205.474 123.573C205.915 122.065 206.414 120.357 205.623 118.838C204.832 117.319 203.145 116.748 201.657 116.245ZM202.954 122.838C202.636 123.928 202.306 125.057 202.405 126.18C202.5 127.258 203.013 128.281 203.51 129.271C204.026 130.297 204.565 131.372 204.347 132.059C204.13 132.745 203.08 133.315 202.063 133.863C201.088 134.389 200.082 134.933 199.386 135.762C198.661 136.626 198.285 137.739 197.92 138.815C197.556 139.891 197.184 140.992 196.602 141.295C196.019 141.598 194.897 141.272 193.814 140.954C192.731 140.636 191.595 140.306 190.472 140.405C189.393 140.5 188.371 141.013 187.381 141.51C186.355 142.026 185.28 142.565 184.593 142.348C183.906 142.13 183.337 141.08 182.789 140.063C182.263 139.088 181.719 138.082 180.89 137.386C180.026 136.661 178.912 136.285 177.836 135.92C176.76 135.556 175.66 135.184 175.357 134.602C175.054 134.019 175.38 132.899 175.698 131.814C176.015 130.729 176.346 129.595 176.247 128.472C176.151 127.393 175.639 126.371 175.142 125.381C174.626 124.355 174.087 123.28 174.304 122.593C174.522 121.906 175.572 121.337 176.589 120.789C177.564 120.263 178.569 119.719 179.266 118.89C179.991 118.026 180.367 116.912 180.732 115.836C181.096 114.761 181.468 113.66 182.05 113.357C182.632 113.054 183.755 113.38 184.838 113.698C185.921 114.016 187.057 114.346 188.18 114.247C189.258 114.151 190.281 113.639 191.271 113.142C192.297 112.626 193.372 112.087 194.059 112.304C194.745 112.522 195.315 113.572 195.863 114.589C196.389 115.564 196.933 116.569 197.762 117.266C198.626 117.991 199.739 118.367 200.815 118.732C201.891 119.096 202.992 119.468 203.295 120.05C203.598 120.632 203.272 121.753 202.954 122.838ZM185.737 123.276C185.377 122.585 184.82 122.017 184.138 121.642C183.455 121.268 182.676 121.104 181.9 121.172C181.125 121.24 180.386 121.537 179.779 122.025C179.172 122.512 178.723 123.169 178.489 123.912C178.255 124.654 178.246 125.45 178.464 126.198C178.683 126.945 179.117 127.611 179.714 128.112C180.311 128.612 181.042 128.924 181.817 129.009C182.591 129.094 183.373 128.947 184.063 128.587C184.99 128.105 185.686 127.274 186 126.278C186.314 125.282 186.219 124.202 185.737 123.276ZM181.08 125.701C180.96 125.471 180.911 125.21 180.94 124.952C180.968 124.694 181.072 124.45 181.239 124.251C181.406 124.053 181.628 123.908 181.877 123.835C182.126 123.762 182.391 123.765 182.639 123.843C182.886 123.921 183.105 124.071 183.268 124.273C183.43 124.476 183.529 124.722 183.552 124.98C183.575 125.239 183.52 125.498 183.395 125.726C183.27 125.954 183.081 126.139 182.851 126.259C182.542 126.42 182.182 126.451 181.85 126.347C181.518 126.242 181.241 126.01 181.08 125.701ZM194.588 126.065C193.898 126.425 193.329 126.981 192.955 127.664C192.58 128.347 192.417 129.125 192.485 129.901C192.553 130.677 192.85 131.415 193.337 132.022C193.825 132.629 194.481 133.078 195.224 133.313C195.967 133.547 196.762 133.555 197.51 133.337C198.258 133.119 198.924 132.684 199.424 132.087C199.925 131.491 200.237 130.759 200.322 129.985C200.406 129.211 200.259 128.429 199.9 127.738C199.417 126.812 198.587 126.115 197.591 125.801C196.595 125.488 195.515 125.582 194.588 126.065ZM197.014 130.721C196.783 130.841 196.523 130.89 196.265 130.862C196.007 130.834 195.763 130.729 195.564 130.563C195.365 130.396 195.22 130.174 195.147 129.925C195.075 129.675 195.078 129.41 195.156 129.163C195.234 128.915 195.383 128.696 195.586 128.534C195.788 128.371 196.034 128.272 196.293 128.249C196.551 128.227 196.811 128.281 197.038 128.406C197.266 128.531 197.452 128.72 197.571 128.951C197.732 129.259 197.764 129.619 197.659 129.951C197.555 130.283 197.322 130.56 197.014 130.721ZM193.367 118.869L187.79 136.572C187.738 136.737 187.654 136.89 187.543 137.022C187.432 137.154 187.297 137.263 187.144 137.342C186.991 137.422 186.824 137.471 186.652 137.486C186.48 137.501 186.307 137.482 186.142 137.43C185.978 137.378 185.825 137.295 185.693 137.184C185.561 137.073 185.452 136.937 185.372 136.784C185.293 136.631 185.244 136.464 185.229 136.293C185.214 136.121 185.233 135.948 185.285 135.783L190.862 118.079C190.914 117.915 190.998 117.762 191.109 117.63C191.219 117.498 191.355 117.389 191.508 117.309C191.661 117.23 191.828 117.181 192 117.166C192.172 117.151 192.345 117.17 192.509 117.222C192.674 117.273 192.826 117.357 192.959 117.468C193.091 117.579 193.2 117.714 193.279 117.867C193.359 118.02 193.408 118.188 193.423 118.359C193.438 118.531 193.419 118.704 193.367 118.869Z" fill="#CF1414"/>
</g>
</g>
<defs>
<clipPath id="clip0_22_1246">
<rect width="500" height="342" fill="white"/>
</clipPath>
<clipPath id="clip1_22_1246">
<rect width="19" height="19" fill="white" transform="translate(274 14.1637) rotate(-12.6587)"/>
</clipPath>
<clipPath id="clip2_22_1246">
<rect width="21" height="21" fill="white" transform="translate(22 131.343) rotate(-29.5065)"/>
</clipPath>
<clipPath id="clip3_22_1246">
<rect width="26" height="26" fill="white" transform="translate(459.089 153.789) rotate(-14.9324)"/>
</clipPath>
<clipPath id="clip4_22_1246">
<rect width="103.408" height="103.408" fill="white" transform="translate(31.7214 60.4693) rotate(-30)"/>
</clipPath>
<clipPath id="clip5_22_1246">
<rect width="42.1663" height="42.1663" fill="white" transform="translate(177.315 25.423) rotate(-18.5066)"/>
</clipPath>
<clipPath id="clip6_22_1246">
<rect width="66.2613" height="66.2613" fill="white" transform="translate(76.3867 141.708) rotate(25.5323)"/>
</clipPath>
<clipPath id="clip7_22_1246">
<rect width="80.3129" height="80.3129" fill="white" transform="translate(233.356 61.0898) rotate(13.3515)"/>
</clipPath>
<clipPath id="clip8_22_1246">
<rect width="34.1346" height="34.1346" fill="white" transform="translate(310.91 264.89) rotate(-28.7597)"/>
</clipPath>
<clipPath id="clip9_22_1246">
<rect width="56.2217" height="56.2217" fill="white" transform="translate(310.854 40.6556) rotate(-24.0937)"/>
</clipPath>
<clipPath id="clip10_22_1246">
<rect width="50.1981" height="50.1981" fill="white" transform="translate(169.867 297.442) rotate(-26.9209)"/>
</clipPath>
<clipPath id="clip11_22_1246">
<rect width="73.2891" height="73.2891" fill="white" transform="translate(405.822 276.239) rotate(-16.2022)"/>
</clipPath>
<clipPath id="clip12_22_1246">
<rect width="39.9174" height="39.9174" fill="white" transform="translate(421.889 106.151) rotate(-42.5585)"/>
</clipPath>
<clipPath id="clip13_22_1246">
<rect width="45.5412" height="45.5412" fill="white" transform="translate(236.592 182.974) rotate(20.1761)"/>
</clipPath>
<clipPath id="clip14_22_1246">
<rect width="80.3168" height="80.3168" fill="white" transform="translate(384.675 149.695) rotate(22.6964)"/>
</clipPath>
<clipPath id="clip15_22_1246">
<rect width="36.1426" height="36.1426" fill="white" transform="translate(133.848 192.717) rotate(-24.2815)"/>
</clipPath>
<clipPath id="clip16_22_1246">
<rect width="31.1228" height="31.1228" fill="white" transform="translate(301.922 160.251) rotate(-19.8641)"/>
</clipPath>
<clipPath id="clip17_22_1246">
<rect width="35.1386" height="35.1386" fill="white" transform="translate(376.183 290.143) rotate(23.3466)"/>
</clipPath>
<clipPath id="clip18_22_1246">
<rect width="39.1544" height="39.1544" fill="white" transform="translate(6.89954 230.008) rotate(-22.2011)"/>
</clipPath>
<clipPath id="clip19_22_1246">
<rect width="23.7888" height="23.7888" fill="white" transform="translate(291.301 295.092) rotate(25.0593)"/>
</clipPath>
<clipPath id="clip20_22_1246">
<rect width="45.1782" height="45.1782" fill="white" transform="translate(366.578 92.2658) rotate(28.7041)"/>
</clipPath>
<clipPath id="clip21_22_1246">
<rect width="42.1663" height="42.1663" fill="white" transform="translate(430.89 17.8661) rotate(-24.2723)"/>
</clipPath>
<clipPath id="clip22_22_1246">
<rect width="27.1072" height="27.1072" fill="white" transform="translate(36.6152 -4.61743) rotate(27.9072)"/>
</clipPath>
<clipPath id="clip23_22_1246">
<rect width="30" height="30" fill="white" transform="translate(24.2745 285.722) rotate(12.6162)"/>
</clipPath>
<clipPath id="clip24_22_1246">
<rect width="32" height="32" fill="white" transform="translate(178 242.099) rotate(-18.3958)"/>
</clipPath>
<clipPath id="clip25_22_1246">
<rect width="42" height="42" fill="white" transform="translate(161 118.402) rotate(-27.5126)"/>
</clipPath>
</defs>
</svg>
